<?xml version="1.0" standalone="no"?>
<!DOCTYPE svg PUBLIC "-//W3C//DTD SVG 20010904//EN"
 "http://www.w3.org/TR/2001/REC-SVG-20010904/DTD/svg10.dtd">
<svg version="1.0" xmlns="http://www.w3.org/2000/svg"
 width="1024.000000pt" height="1024.000000pt" viewBox="0 0 1024.000000 1024.000000"
 preserveAspectRatio="xMidYMid meet">

<g transform="translate(0.000000,1024.000000) scale(0.100000,-0.100000)"
fill="#000000" stroke="none">
<path d="M4930 9439 c-587 -26 -1126 -205 -1645 -548 -121 -80 -319 -236 -419
-331 -72 -69 -75 -70 -114 -64 -59 9 -105 -2 -140 -36 -51 -48 -65 -85 -59
-154 5 -58 4 -61 -32 -106 -40 -47 -147 -204 -154 -223 -2 -6 -20 7 -40 30
-91 100 -205 101 -313 1 -176 -162 -305 -545 -249 -735 18 -61 73 -116 134
-134 23 -7 41 -18 41 -25 0 -7 -11 -59 -25 -116 -64 -271 -92 -707 -65 -1032
64 -773 374 -1453 908 -1993 295 -297 627 -522 1037 -703 563 -249 1291 -321
2005 -199 307 53 717 202 973 355 323 193 559 385 790 642 196 219 341 424
467 666 184 350 314 801 351 1217 14 157 7 454 -15 639 -86 710 -396 1359
-896 1874 -212 218 -407 369 -686 530 -438 251 -907 397 -1399 435 -212 17
-282 18 -455 10z m660 -214 c469 -78 821 -203 1162 -413 450 -277 850 -706
1110 -1192 347 -649 442 -1495 247 -2206 -80 -293 -157 -474 -326 -768 -11
-18 -13 -13 -13 44 -1 299 -97 686 -240 970 -49 97 -160 280 -213 350 -69 92
-213 255 -281 317 l-65 59 14 42 c18 52 45 202 45 250 0 34 1 35 19 18 11 -10
28 -16 38 -14 16 3 18 16 17 148 -1 209 -36 370 -130 596 -19 46 -34 87 -34
92 0 5 23 17 52 27 86 28 147 64 198 115 103 105 145 277 104 433 -23 89 -79
193 -132 245 -47 45 -134 92 -172 92 -27 0 -25 13 3 25 47 21 11 48 -90 66
-86 16 -161 6 -231 -31 -63 -34 -176 -136 -187 -170 -3 -11 -11 -20 -16 -20
-5 0 -69 58 -142 128 -133 130 -231 200 -337 242 -47 18 -50 19 -59 2 -5 -9
-7 -29 -4 -44 l5 -27 -59 23 c-77 30 -159 50 -178 42 -23 -8 -18 -29 16 -76
l31 -43 -48 7 c-27 3 -88 9 -136 13 l-88 6 0 46 c-1 165 -81 286 -226 341 -77
28 -189 26 -178 -5 4 -8 -11 -14 -49 -18 -70 -7 -123 -34 -174 -90 -114 -124
-144 -319 -66 -433 l25 -38 -29 -20 c-59 -42 -185 -172 -228 -237 -25 -37 -73
-127 -106 -199 -74 -165 -97 -196 -206 -290 -134 -113 -218 -203 -256 -272
-35 -63 -87 -212 -87 -249 0 -10 -3 -19 -7 -19 -3 0 -64 32 -135 72 l-129 72
-45 93 c-54 114 -128 192 -234 247 -39 21 -164 75 -278 121 -298 119 -521 212
-531 221 -5 4 34 58 112 154 60 74 76 87 120 102 59 19 94 56 103 108 8 42 36
74 169 189 140 122 247 205 329 259 39 25 94 60 123 79 105 68 336 185 470
239 250 101 511 166 778 194 61 6 119 13 130 15 11 2 144 2 295 0 239 -3 295
-7 430 -30z m416 -770 c42 -25 78 -44 81 -42 2 2 -10 33 -26 68 -17 34 -29 65
-26 67 10 10 141 -102 258 -221 l127 -130 -10 -36 c-46 -165 47 -317 143 -233
25 22 30 10 12 -31 -44 -107 16 -205 93 -151 13 9 25 14 28 11 3 -2 -4 -28
-16 -56 -49 -125 -10 -210 97 -211 51 0 53 -1 72 -37 29 -58 77 -199 95 -283
17 -76 47 -302 40 -309 -1 -1 -13 6 -25 18 -13 12 -26 21 -29 21 -4 0 -10 -51
-13 -112 -5 -110 -35 -308 -46 -308 -3 0 -19 33 -35 73 -16 39 -38 87 -49 105
l-20 34 -23 -92 c-36 -144 -119 -274 -225 -356 -58 -45 -184 -116 -228 -129
-21 -6 -23 -5 -16 11 40 96 63 170 56 177 -14 14 -33 -2 -94 -74 -77 -91 -217
-203 -233 -186 -3 3 11 36 30 74 53 103 50 105 -49 32 -75 -55 -182 -110 -254
-129 -52 -14 -64 -7 -24 14 66 34 188 166 154 166 -6 0 -46 -18 -88 -39 -159
-80 -326 -121 -493 -120 l-95 0 29 22 c62 46 104 88 119 119 9 18 14 34 12 36
-2 2 -36 -13 -77 -32 -108 -53 -230 -79 -368 -80 -181 -1 -307 45 -421 155
-62 60 -91 112 -110 198 -9 44 -8 56 5 76 9 14 22 25 29 25 8 0 28 -31 46 -69
53 -113 109 -158 227 -181 70 -14 152 -2 221 31 120 58 126 237 11 352 -50 50
-96 74 -229 121 -42 15 -86 36 -98 47 -24 22 -28 67 -10 118 12 33 17 35 104
46 69 9 149 51 212 110 67 64 69 89 13 137 -121 105 -397 165 -460 102 -51
-51 -31 -194 40 -283 42 -53 47 -70 28 -89 -6 -6 -12 -35 -13 -64 l-2 -53 -64
-16 c-109 -27 -139 -30 -139 -12 0 9 -14 44 -31 79 l-31 63 16 98 c24 142 84
248 169 297 58 34 146 47 311 48 152 1 220 -11 323 -58 30 -14 57 -23 59 -21
3 2 0 15 -5 29 -20 54 -131 118 -203 118 -15 0 -28 2 -28 4 0 3 14 20 30 38
38 40 76 118 95 189 28 105 14 191 -38 235 -30 26 -35 26 -122 21 -97 -6 -162
-26 -242 -76 -26 -17 -49 -28 -52 -25 -9 8 70 151 119 216 180 237 591 391
931 348 52 -6 138 -23 191 -36 53 -13 99 -24 102 -24 13 0 5 38 -19 88 -14 30
-25 56 -25 58 0 6 90 -40 176 -91z m-3235 -64 c36 -36 37 -70 3 -110 -43 -51
-111 -35 -139 32 -36 86 68 145 136 78z m-584 -427 c-3 -3 -12 -4 -19 -1 -8 3
-5 6 6 6 11 1 17 -2 13 -5z m-131 -72 c-17 -16 -18 -16 -5 5 7 12 15 20 18 17
3 -2 -3 -12 -13 -22z m-16 -26 c0 -2 -8 -10 -17 -17 -16 -13 -17 -12 -4 4 13
16 21 21 21 13z m207 -128 c-3 -8 -6 -5 -6 6 -1 11 2 17 5 13 3 -3 4 -12 1
-19z m438 -18 c3 -6 -1 -7 -9 -4 -18 7 -21 14 -7 14 6 0 13 -4 16 -10z m-734
-67 c-12 -20 -14 -14 -5 12 4 9 9 14 11 11 3 -2 0 -13 -6 -23z m701 -2 c109
-43 336 -138 396 -166 42 -20 52 -29 52 -50 0 -48 -35 -42 -216 38 -93 41
-209 92 -259 113 -79 35 -90 43 -93 67 -3 23 0 27 22 27 13 0 58 -13 98 -29z
m1970 -18 c2 -30 9 -41 31 -51 24 -12 31 -11 53 2 15 10 24 26 24 41 0 23 4
25 43 25 41 -1 77 -18 77 -37 0 -5 -15 -23 -33 -41 -26 -25 -48 -34 -112 -47
-44 -8 -94 -15 -112 -15 -55 0 -123 74 -123 135 0 25 1 25 74 25 l75 0 3 -37z
m-2705 -85 c-3 -8 -6 -5 -6 6 -1 11 2 17 5 13 3 -3 4 -12 1 -19z m2307 -98 c4
-20 15 -34 33 -42 16 -7 30 -14 33 -16 8 -6 -25 -22 -48 -22 -21 0 -23 -4 -20
-47 3 -46 2 -48 -24 -51 -30 -4 -35 -20 -16 -51 9 -15 8 -30 -5 -71 -9 -29
-17 -63 -17 -75 0 -40 -9 -52 -36 -47 -13 2 -44 -1 -68 -8 -33 -9 -49 -9 -65
0 -19 10 -21 17 -16 58 10 74 53 196 88 248 32 49 133 154 147 154 4 0 10 -14
14 -30z m-2317 -32 c-3 -8 -6 -5 -6 6 -1 11 2 17 5 13 3 -3 4 -12 1 -19z m673
12 c0 -5 -4 -10 -10 -10 -5 0 -10 5 -10 10 0 6 5 10 10 10 6 0 10 -4 10 -10z
m-713 -72 c-2 -13 -4 -5 -4 17 -1 22 1 32 4 23 2 -10 2 -28 0 -40z m397 -3
c-4 -8 -11 -15 -16 -15 -6 0 -5 6 2 15 7 8 14 15 16 15 2 0 1 -7 -2 -15z m836
-21 c0 -8 -4 -12 -10 -9 -5 3 -10 13 -10 21 0 8 5 12 10 9 6 -3 10 -13 10 -21z
m44 1 c-6 -16 -24 -21 -24 -7 0 11 11 22 21 22 5 0 6 -7 3 -15z m-829 -15 c3
-6 -1 -7 -9 -4 -18 7 -21 14 -7 14 6 0 13 -4 16 -10z m1143 -15 c-3 -3 -9 2
-12 12 -6 14 -5 15 5 6 7 -7 10 -15 7 -18z m1138 10 c58 -15 93 -35 62 -35 -9
0 -18 -5 -20 -12 -3 -9 -12 -9 -38 0 -18 7 -43 12 -54 12 -27 0 -68 28 -61 41
9 13 46 11 111 -6z m-2591 -65 c-3 -5 -14 -10 -23 -9 -14 0 -13 2 3 9 27 11
27 11 20 0z m860 -61 c9 -14 -3 -59 -15 -59 -6 0 -9 16 -7 35 2 35 10 44 22
24z m463 -116 c-10 -2 -26 -2 -35 0 -10 3 -2 5 17 5 19 0 27 -2 18 -5z m127
-11 c-3 -3 -11 0 -18 7 -9 10 -8 11 6 5 10 -3 15 -9 12 -12z m-425 -2 c0 -5
-4 -10 -10 -10 -5 0 -10 5 -10 10 0 6 5 10 10 10 6 0 10 -4 10 -10z m-710 -79
c41 -18 78 -35 82 -39 3 -4 -13 -47 -38 -97 -54 -110 -108 -274 -129 -392 -23
-124 -23 -373 -1 -483 39 -191 91 -319 190 -469 31 -47 56 -85 56 -86 0 0 -16
1 -35 3 -30 4 -35 1 -35 -16 0 -10 9 -30 19 -44 26 -32 146 -113 213 -142 29
-13 64 -28 78 -34 23 -10 21 -11 -20 -11 -89 -2 -89 -31 -1 -75 74 -38 168
-57 304 -63 70 -3 127 -8 127 -10 0 -2 -15 -34 -34 -72 -115 -227 -180 -441
-215 -708 l-16 -122 -46 42 c-25 23 -88 96 -141 162 -391 492 -605 1021 -659
1626 -14 165 -7 486 16 659 14 109 68 402 80 438 5 13 56 -4 205 -67z m910 65
c0 -2 -7 -7 -16 -10 -8 -3 -12 -2 -9 4 6 10 25 14 25 6z m625 -74 c-3 -3 -11
0 -18 7 -9 10 -8 11 6 5 10 -3 15 -9 12 -12z m-470 -2 c-3 -5 -11 -10 -17 -10
-19 0 -113 -52 -142 -78 -16 -15 -41 -45 -57 -66 -31 -42 -35 -38 -18 15 17
51 86 117 139 134 54 16 104 19 95 5z m642 -122 c-3 -8 -6 -5 -6 6 -1 11 2 17
5 13 3 -3 4 -12 1 -19z m-480 -4 c-3 -3 -12 -4 -19 -1 -8 3 -5 6 6 6 11 1 17
-2 13 -5z m88 -24 c13 -6 15 -9 5 -9 -8 0 -22 4 -30 9 -18 12 -2 12 25 0z m52
-16 c-3 -3 -12 -4 -19 -1 -8 3 -5 6 6 6 11 1 17 -2 13 -5z m490 -36 c-3 -8 -6
-5 -6 6 -1 11 2 17 5 13 3 -3 4 -12 1 -19z m-372 2 c13 -5 14 -9 5 -9 -8 0
-24 4 -35 9 -13 5 -14 9 -5 9 8 0 24 -4 35 -9z m82 -26 c-5 -5 -57 13 -57 20
0 3 14 0 31 -6 16 -6 28 -12 26 -14z m-40 -10 c-3 -3 -12 -4 -19 -1 -8 3 -5 6
6 6 11 1 17 -2 13 -5z m314 -21 c-12 -20 -14 -14 -5 12 4 9 9 14 11 11 3 -2 0
-13 -6 -23z m214 12 c44 -9 84 -20 89 -25 15 -15 -2 -39 -31 -45 -115 -25
-154 -66 -156 -163 0 -31 3 -68 7 -82 l8 -25 -27 25 c-31 28 -75 114 -75 146
0 11 15 41 34 65 18 24 39 61 46 82 6 20 15 37 18 37 4 0 43 -7 87 -15z m-692
-62 l188 -47 35 -49 c48 -66 122 -95 174 -67 16 9 22 5 36 -22 9 -18 30 -52
46 -76 17 -24 28 -45 26 -46 -9 -8 -438 -139 -510 -155 -228 -53 -347 -28
-426 88 -27 39 -71 168 -60 175 2 1 28 15 59 29 70 34 132 88 184 161 22 30
45 56 50 56 6 0 95 -21 198 -47z m4587 18 c0 -6 -4 -13 -10 -16 -5 -3 -10 1
-10 9 0 9 5 16 10 16 6 0 10 -4 10 -9z m-4243 -57 c-3 -3 -12 -4 -19 -1 -8 3
-5 6 6 6 11 1 17 -2 13 -5z m-997 -175 c10 -6 0 -8 -29 -7 -25 2 -46 9 -49 15
-4 14 50 8 78 -8z m1718 -76 c-10 -2 -26 -2 -35 0 -10 3 -2 5 17 5 19 0 27 -2
18 -5z m-528 -277 c0 -11 -313 -307 -318 -301 -12 12 70 134 122 183 65 61
196 140 196 118z m-795 -85 c-3 -6 -11 -11 -17 -11 -6 0 -6 6 2 15 14 17 26
13 15 -4z m-235 -6 c0 -8 -4 -15 -10 -15 -5 0 -10 7 -10 15 0 8 5 15 10 15 6
0 10 -7 10 -15z m1683 -256 c200 -30 516 -125 686 -206 237 -113 450 -276 605
-462 56 -67 116 -153 116 -165 0 -7 -65 -15 -195 -26 -66 -5 -187 -19 -270
-31 l-150 -22 -164 32 c-199 38 -328 41 -445 11 -137 -35 -226 -92 -267 -172
-11 -21 -18 -38 -17 -38 2 0 32 9 68 21 36 11 103 22 150 24 72 4 79 3 45 -6
-297 -75 -399 -128 -451 -235 -33 -68 -31 -146 7 -197 20 -27 24 -44 24 -107
0 -57 5 -83 21 -110 27 -47 78 -80 123 -80 30 0 40 -5 54 -30 29 -48 70 -64
162 -65 66 0 91 5 141 28 61 27 63 27 161 16 71 -7 122 -7 177 0 l77 11 137
-51 c121 -45 242 -84 337 -107 30 -8 29 -9 -65 -70 -145 -96 -328 -186 -660
-325 -179 -75 -415 -123 -646 -133 -136 -6 -162 -5 -250 16 -121 27 -332 93
-479 149 -164 62 -451 216 -622 333 -45 30 -39 16 -110 248 -9 31 -23 -15 -23
-77 0 -35 -3 -63 -7 -63 -4 0 -20 12 -35 27 l-28 27 0 149 c0 110 5 175 20
250 26 127 90 317 141 419 21 43 39 80 39 84 0 13 -57 -31 -103 -80 -59 -62
-57 -47 13 102 155 328 422 603 803 828 106 63 126 68 101 24 -10 -16 -16 -32
-13 -34 3 -3 54 11 114 31 61 19 155 44 210 53 116 21 358 26 468 9z m-2372
-102 c-10 -9 -11 -8 -5 6 3 10 9 15 12 12 3 -3 0 -11 -7 -18z m3896 -131 c64
-126 98 -313 82 -455 -5 -46 -7 -86 -5 -88 2 -3 59 3 126 12 137 20 210 16
266 -14 l39 -20 -75 6 c-47 3 -115 0 -180 -10 -58 -9 -129 -18 -158 -22 l-53
-6 6 78 c11 132 -35 272 -123 380 -47 58 -44 60 19 11 71 -54 71 -40 8 131
-22 58 -39 107 -39 110 1 14 64 -68 87 -113z m-177 -116 c0 -5 -4 -10 -10 -10
-5 0 -10 5 -10 10 0 6 5 10 10 10 6 0 10 -4 10 -10z m195 -328 c-3 -4 -10 0
-15 8 -6 9 -5 17 3 22 13 8 24 -19 12 -30z m728 -142 c3 -11 1 -20 -4 -20 -5
0 -9 2 -9 4 0 2 -3 11 -6 20 -3 9 -2 16 4 16 5 0 12 -9 15 -20z m-2149 -499
c3 -5 -25 -19 -62 -31 -72 -24 -171 -71 -214 -101 -48 -35 -53 -17 -8 34 35
41 107 74 199 92 85 17 79 16 85 6z m91 -269 c-6 -5 -32 -26 -60 -47 -27 -22
-69 -57 -93 -78 -24 -21 -46 -36 -49 -34 -3 3 0 21 6 40 17 51 72 97 140 118
36 10 67 11 56 1z m626 -90 c-16 -31 -49 -54 -71 -50 -20 3 -17 7 21 35 50 37
64 41 50 15z m1189 -313 c0 -24 -239 -50 -349 -38 -58 6 -171 34 -171 42 0 1
117 2 260 2 143 0 260 -3 260 -6z m-450 -139 c0 -5 -5 -10 -11 -10 -5 0 -7 5
-4 10 3 6 8 10 11 10 2 0 4 -4 4 -10z m-1860 -450 c0 -5 -4 -10 -10 -10 -5 0
-10 5 -10 10 0 6 5 10 10 10 6 0 10 -4 10 -10z"/>
<path d="M3251 8259 c-49 -46 -53 -105 -12 -151 26 -29 36 -33 79 -33 58 0 85
19 103 72 13 41 -1 84 -39 113 -34 27 -101 27 -131 -1z m89 -64 c18 -21 5 -47
-22 -43 -26 3 -37 36 -16 49 18 12 24 11 38 -6z"/>
<path d="M3005 8005 c-55 -54 -14 -145 67 -145 52 0 88 35 88 85 0 51 -36 85
-90 85 -30 0 -47 -6 -65 -25z m93 -58 c4 -20 -25 -34 -40 -19 -15 15 -1 44 19
40 10 -2 19 -11 21 -21z"/>
<path d="M4880 8161 c-67 -21 -150 -80 -150 -108 0 -16 13 -16 70 1 25 7 84
19 133 26 72 11 87 16 87 31 0 43 -74 70 -140 50z"/>
<path d="M5583 8125 c-13 -9 -23 -23 -23 -31 0 -18 40 -34 82 -34 52 0 118
-40 204 -122 82 -79 104 -92 104 -60 0 58 -89 182 -165 230 -52 33 -167 43
-202 17z"/>
<path d="M5575 7921 c-123 -32 -223 -141 -261 -286 -21 -76 -18 -247 5 -336
53 -202 156 -367 285 -453 21 -14 49 -26 61 -26 19 0 11 12 -50 73 -59 59
-125 155 -125 182 0 4 22 -18 49 -47 60 -65 125 -102 227 -128 65 -17 87 -18
141 -10 112 18 193 73 240 163 25 48 29 171 8 243 -34 118 -161 365 -231 451
-37 45 -137 124 -196 154 -44 23 -110 31 -153 20z m-50 -404 l50 -12 -3 -42
c-3 -34 1 -47 22 -68 46 -46 123 -20 109 36 -7 25 1 24 96 -12 53 -20 81 -36
81 -46 0 -28 -73 -90 -120 -103 -52 -14 -126 -8 -169 15 -63 32 -141 137 -166
223 -6 19 -3 22 22 21 15 0 50 -6 78 -12z"/>
<path d="M6780 7195 c0 -42 23 -100 52 -128 68 -69 50 28 -22 113 -25 29 -29
32 -30 15z"/>
<path d="M6783 6899 c3 -41 11 -87 17 -104 11 -29 12 -29 26 -11 19 27 17 83
-5 132 -33 72 -45 67 -38 -17z"/>
<path d="M5220 6808 c0 -2 11 -30 25 -63 16 -40 25 -80 25 -120 l1 -60 20 25
c17 20 20 33 15 73 -9 64 -34 125 -57 137 -17 10 -29 13 -29 8z"/>
<path d="M6509 6453 c-17 -44 -27 -110 -19 -123 5 -8 14 -3 29 16 15 20 21 41
21 80 0 59 -14 71 -31 27z"/>
<path d="M3872 5434 c-53 -26 -92 -65 -92 -91 0 -8 3 -13 8 -11 41 21 166 79
200 93 23 10 42 22 42 27 0 19 -107 8 -158 -18z"/>
<path d="M5785 5213 c18 -44 64 -113 75 -113 4 0 4 21 -1 48 -6 33 -18 55 -39
75 -42 37 -53 34 -35 -10z"/>
<path d="M3565 5129 c-48 -24 -107 -79 -131 -125 -39 -71 14 -49 108 47 56 58
86 99 71 99 -4 -1 -26 -10 -48 -21z"/>
<path d="M5500 4971 c0 -18 75 -36 155 -36 75 0 145 17 145 35 0 5 -67 9 -150
9 -90 1 -150 -2 -150 -8z"/>
<path d="M3206 4428 c-3 -13 -6 -33 -6 -45 0 -30 30 -103 41 -103 6 0 9 36 7
82 -2 67 -6 83 -19 86 -10 2 -19 -6 -23 -20z"/>
<path d="M3300 4138 c0 -42 21 -98 46 -125 l25 -28 -6 54 c-3 30 -12 69 -20
88 -16 38 -45 45 -45 11z"/>
<path d="M5312 3749 c-50 -34 -92 -66 -92 -72 0 -14 70 2 108 25 37 23 86 82
80 98 -2 6 -45 -17 -96 -51z"/>
<path d="M5630 3704 c-85 -53 -138 -98 -119 -102 42 -8 209 96 209 130 0 16
-37 5 -90 -28z"/>
<path d="M4936 3514 c-134 -30 -152 -38 -113 -53 42 -16 86 -13 154 9 63 22
126 71 87 69 -10 -1 -68 -12 -128 -25z"/>
<path d="M5303 3521 c-50 -17 -138 -70 -129 -78 5 -6 97 18 126 33 28 14 79
64 64 64 -5 -1 -32 -9 -61 -19z"/>
<path d="M4435 3400 c-15 -25 16 -35 108 -35 51 0 101 4 112 9 18 8 16 10 -15
17 -71 16 -197 22 -205 9z"/>
<path d="M2433 8830 c-28 -11 -63 -66 -63 -98 0 -36 27 -80 60 -97 78 -40 159
7 160 94 0 36 -6 49 -34 77 -36 36 -75 43 -123 24z m86 -94 c5 -27 -26 -48
-50 -35 -19 10 -25 39 -12 53 14 14 58 1 62 -18z"/>
<path d="M2287 2922 c-28 -31 -21 -75 18 -122 l35 -42 0 -338 0 -338 -35 -42
c-42 -51 -48 -107 -14 -141 21 -21 27 -21 308 -16 313 5 362 12 471 67 73 37
165 126 203 197 78 145 74 378 -10 548 -34 71 -117 149 -199 187 -103 48 -185
58 -488 58 -252 0 -274 -1 -289 -18z m183 -122 c0 -5 -4 -10 -10 -10 -5 0 -10
5 -10 10 0 6 5 10 10 10 6 0 10 -4 10 -10z m405 -80 c49 -21 76 -50 109 -117
50 -99 50 -289 1 -389 -46 -94 -116 -134 -234 -134 -109 0 -101 -25 -101 328
0 169 4 312 8 318 4 7 16 14 27 17 35 10 148 -4 190 -23z"/>
<path d="M3418 2929 c-31 -18 -24 -82 15 -125 l32 -37 0 -353 0 -353 -33 -34
c-42 -43 -47 -100 -12 -129 20 -16 44 -18 205 -18 163 0 185 2 206 18 35 29
30 73 -14 121 l-37 41 0 110 0 110 39 0 c50 0 65 -18 121 -147 92 -214 97
-223 134 -238 45 -19 259 -21 296 -2 38 19 41 80 4 110 -68 54 -103 100 -163
210 -34 64 -61 123 -58 131 3 7 25 24 48 37 96 53 143 164 120 286 -28 152
-117 236 -281 262 -84 14 -599 14 -622 0z m546 -210 c86 -68 69 -206 -29 -235
-44 -14 -114 -17 -139 -8 -13 5 -16 26 -16 129 0 89 3 125 13 128 6 3 42 6 78
6 53 1 72 -3 93 -20z"/>
<path d="M4450 2920 c-30 -30 -25 -73 13 -116 l32 -37 5 -296 c5 -278 7 -300
28 -353 76 -190 323 -287 589 -232 129 26 218 83 270 171 55 94 57 107 63 424
l5 296 33 37 c35 41 42 84 16 110 -13 13 -45 16 -189 16 -195 0 -205 -3 -205
-67 0 -29 8 -42 43 -74 l42 -39 3 -234 c3 -246 -5 -333 -36 -375 -37 -51 -67
-64 -149 -68 -67 -4 -84 -1 -123 19 -83 43 -85 51 -88 379 l-3 285 35 43 c41
48 45 82 16 111 -19 19 -33 20 -200 20 -167 0 -181 -1 -200 -20z"/>
<path d="M5620 2920 c-29 -29 -25 -65 14 -107 l34 -38 3 -346 4 -346 -47 -51
c-27 -28 -48 -58 -48 -66 0 -25 22 -64 39 -72 26 -10 310 -14 336 -4 49 18 42
70 -16 138 l-29 33 0 209 c0 162 3 210 13 210 12 -1 172 -225 329 -460 46 -71
87 -121 103 -128 14 -7 66 -12 116 -12 82 0 92 2 114 25 l25 24 0 388 c0 213
5 405 9 427 5 21 24 54 42 72 35 36 43 80 19 108 -19 23 -315 23 -348 0 -29
-20 -30 -74 -1 -100 45 -40 49 -63 49 -258 0 -102 -4 -187 -9 -190 -5 -3 -42
43 -83 102 -234 338 -309 439 -333 450 -16 8 -81 12 -170 12 -132 0 -147 -2
-165 -20z"/>
<path d="M6817 2922 c-28 -30 -21 -70 18 -114 l36 -39 -3 -354 -3 -354 -31
-33 c-37 -38 -47 -66 -39 -101 11 -42 46 -49 238 -45 155 3 177 5 196 22 35
32 28 77 -19 124 l-40 40 0 88 0 89 41 43 c23 24 49 42 58 40 9 -2 37 -39 63
-83 26 -43 61 -100 78 -126 35 -55 38 -79 10 -104 -28 -25 -27 -86 1 -111 19
-17 41 -19 219 -22 190 -3 200 -2 219 17 40 40 24 96 -39 136 -43 27 -60 52
-202 290 -123 207 -121 201 -109 223 16 31 217 223 267 255 42 28 49 37 52 69
5 62 -13 68 -220 68 -165 0 -180 -2 -198 -20 -24 -24 -26 -59 -5 -86 8 -10 15
-26 15 -35 0 -19 -216 -264 -233 -264 -8 0 -13 34 -15 116 l-3 116 36 43 c39
47 45 88 17 113 -16 15 -45 17 -204 17 -166 0 -187 -2 -201 -18z"/>
<path d="M2498 1739 c-13 -7 -18 -22 -18 -50 0 -32 7 -47 35 -76 l35 -36 0
-333 0 -332 -35 -42 c-40 -48 -47 -96 -17 -123 16 -15 46 -17 214 -17 176 0
196 2 211 18 27 29 20 64 -22 115 -32 38 -41 59 -47 104 -5 42 -3 64 7 83 14
24 20 25 134 32 238 13 370 91 405 240 36 147 -27 298 -154 373 -83 48 -137
55 -446 55 -175 0 -292 -5 -302 -11z m557 -203 c88 -58 86 -194 -5 -245 -51
-28 -160 -40 -178 -19 -7 9 -15 62 -19 126 -5 96 -4 115 12 138 16 26 20 26
90 22 46 -3 84 -11 100 -22z"/>
<path d="M3600 1730 c-28 -28 -25 -60 10 -100 16 -19 29 -46 30 -58 0 -13 -27
-99 -59 -190 -177 -497 -162 -462 -213 -513 -53 -53 -62 -93 -30 -122 16 -14
44 -17 178 -17 172 0 188 4 199 52 5 21 0 34 -30 67 -32 35 -37 46 -31 73 13
64 24 68 177 68 131 0 139 -1 153 -22 26 -37 20 -80 -14 -110 -38 -33 -42 -88
-8 -112 31 -22 404 -24 433 -2 29 21 24 71 -12 109 -17 18 -38 46 -46 62 -20
39 -257 751 -257 771 0 8 -12 26 -26 39 -27 25 -28 25 -230 25 -191 0 -205 -1
-224 -20z m355 -170 c-3 -5 -10 -10 -16 -10 -5 0 -9 5 -9 10 0 6 7 10 16 10 8
0 12 -4 9 -10z m-77 -226 c18 -54 35 -116 38 -136 l7 -38 -97 0 c-58 0 -96 4
-96 10 0 8 55 176 85 258 11 31 32 0 63 -94z"/>
<path d="M4486 1734 c-30 -30 -24 -68 18 -115 l33 -35 6 -169 c9 -222 8 -430
-2 -482 -5 -24 -22 -57 -40 -78 -34 -40 -41 -84 -15 -109 13 -13 44 -16 178
-16 145 0 165 2 179 18 28 30 21 68 -20 113 l-38 42 -3 203 c-2 114 1 204 6
204 11 0 111 -139 276 -381 69 -103 133 -190 142 -193 8 -3 60 -6 114 -6 81 0
102 3 121 19 l24 19 5 410 5 410 25 21 c14 11 28 20 33 21 4 0 12 11 17 25 10
27 -2 74 -23 87 -21 14 -321 9 -340 -4 -33 -26 -30 -60 10 -112 l38 -49 3
-188 c3 -152 1 -189 -10 -189 -12 1 -55 61 -271 380 -43 63 -91 127 -108 143
l-29 27 -159 0 c-132 0 -162 -3 -175 -16z"/>
<path d="M5652 1738 c-7 -7 -12 -30 -12 -52 0 -32 7 -47 33 -74 l32 -33 0
-339 0 -339 -37 -38 c-41 -42 -48 -75 -22 -111 15 -22 18 -22 265 -22 285 0
360 10 476 66 172 82 263 236 263 444 -1 277 -155 463 -413 499 -111 16 -569
15 -585 -1z m544 -192 c56 -26 91 -66 126 -142 19 -41 23 -66 23 -159 0 -138
-20 -200 -85 -265 -50 -50 -100 -70 -176 -70 -83 0 -79 -19 -82 324 -3 351 -7
336 86 336 39 0 73 -8 108 -24z"/>
<path d="M6920 1730 c-27 -27 -25 -53 5 -98 31 -46 31 -56 -1 -139 -14 -38
-59 -160 -99 -273 -109 -306 -111 -312 -155 -355 -33 -32 -40 -46 -40 -77 0
-27 5 -40 19 -48 11 -5 85 -10 169 -10 142 0 149 1 170 23 29 31 28 72 -3 99
-30 26 -34 81 -9 116 16 23 20 23 160 20 129 -3 145 -5 158 -23 24 -31 19 -61
-16 -100 -37 -43 -41 -91 -7 -117 19 -16 45 -18 220 -18 186 0 200 1 219 20
30 30 24 58 -20 102 -50 51 -58 71 -280 731 -31 92 -50 134 -68 148 -22 17
-42 19 -213 19 -176 0 -190 -1 -209 -20z m280 -428 c29 -89 37 -129 30 -136
-14 -14 -176 -14 -190 0 -10 10 6 59 82 263 15 40 35 7 78 -127z"/>
</g>
</svg>
