<?xml version="1.0" encoding="UTF-8"?>
<svg xmlns="http://www.w3.org/2000/svg" xmlns:xlink="http://www.w3.org/1999/xlink" width="1024px" height="1024px" viewBox="0 0 1024 1024" version="1.1">
<defs>
<filter id="alpha" filterUnits="objectBoundingBox" x="0%" y="0%" width="100%" height="100%">
  <feColorMatrix type="matrix" in="SourceGraphic" values="0 0 0 0 1 0 0 0 0 1 0 0 0 0 1 0 0 0 1 0"/>
</filter>
<mask id="mask0">
  <g filter="url(#alpha)">
<rect x="0" y="0" width="1024" height="1024" style="fill:rgb(0%,0%,0%);fill-opacity:0.054902;stroke:none;"/>
  </g>
</mask>
<clipPath id="clip1">
  <rect x="0" y="0" width="1024" height="1024"/>
</clipPath>
<g id="surface5" clip-path="url(#clip1)">
<path style=" stroke:none;fill-rule:evenodd;fill:rgb(0.392157%,0.392157%,0.392157%);fill-opacity:1;" d="M 621.332031 1021.332031 C 548.441406 1021.332031 475.554688 1021.332031 402.667969 1021.332031 C 141.730469 942.554688 9.289062 766.554688 5.332031 493.332031 C 33.671875 255.21875 162.5625 101.441406 392 32 C 655.128906 -12.875 848.019531 82.238281 970.667969 317.332031 C 1062.363281 564.804688 1006.363281 771.914062 802.667969 938.667969 C 746.25 976.089844 685.808594 1003.648438 621.332031 1021.332031 Z M 621.332031 1021.332031 "/>
</g>
<mask id="mask1">
  <g filter="url(#alpha)">
<rect x="0" y="0" width="1024" height="1024" style="fill:rgb(0%,0%,0%);fill-opacity:0.980392;stroke:none;"/>
  </g>
</mask>
<clipPath id="clip2">
  <rect x="0" y="0" width="1024" height="1024"/>
</clipPath>
<g id="surface8" clip-path="url(#clip2)">
<path style=" stroke:none;fill-rule:evenodd;fill:rgb(72.156864%,68.627453%,61.960787%);fill-opacity:1;" d="M 392 962.667969 C 452.019531 971.375 512.464844 974.933594 573.332031 973.332031 C 529.832031 979.503906 485.390625 980.390625 440 976 C 422.707031 973.835938 406.707031 969.390625 392 962.667969 Z M 392 962.667969 "/>
</g>
</defs>
<g id="surface1">
<use xlink:href="#surface5" mask="url(#mask0)"/>
<path style=" stroke:none;fill-rule:evenodd;fill:rgb(95.294118%,91.37255%,82.745099%);fill-opacity:1;" d="M 840 173.332031 C 972.804688 313.652344 1011.03125 477.207031 954.667969 664 C 917.445312 767.125 852.558594 847.125 760 904 C 756.441406 904 752.890625 904 749.332031 904 C 735.308594 876.457031 722.859375 848.015625 712 818.667969 C 699.558594 815.109375 687.109375 811.558594 674.667969 808 C 683.558594 808 692.441406 808 701.332031 808 C 700.691406 798.9375 698.910156 790.054688 696 781.332031 C 695.75 773.332031 699.300781 768 706.667969 765.332031 C 717.960938 777.867188 723.296875 791.199219 722.667969 805.332031 C 734.988281 807.984375 747.429688 808.871094 760 808 C 752.9375 785.886719 742.273438 765.441406 728 746.667969 C 738.550781 736.117188 749.214844 725.449219 760 714.667969 C 748.726562 706.570312 736.28125 704.792969 722.667969 709.332031 C 718.894531 722.894531 711.785156 734.449219 701.332031 744 C 695.035156 735.28125 695.035156 726.390625 701.332031 717.332031 C 695.109375 715.558594 688.890625 713.777344 682.667969 712 C 673.703125 712.574219 667.476562 716.132812 664 722.667969 C 665.210938 738.335938 659.878906 750.777344 648 760 C 647.296875 743.625 649.070312 727.625 653.332031 712 C 643.777344 707.683594 633.109375 705.019531 621.332031 704 C 625.796875 698.609375 627.574219 692.382812 626.667969 685.332031 C 635.621094 686.480469 640.953125 682.921875 642.667969 674.667969 C 794.511719 584.097656 841.621094 454.320312 784 285.332031 C 764.734375 252.765625 742.511719 222.542969 717.332031 194.667969 C 727.945312 192.035156 727.945312 185.8125 717.332031 176 C 719.769531 173.792969 721.550781 171.125 722.667969 168 C 715.59375 169.574219 708.484375 166.90625 701.332031 160 C 717.492188 158.464844 732.609375 157.574219 746.667969 157.332031 C 750.863281 163.789062 754.421875 169.125 757.332031 173.332031 C 757.1875 166.460938 762.523438 161.128906 773.332031 157.332031 C 773.785156 148.882812 774.671875 141.769531 776 136 C 784.734375 142.425781 786.511719 149.535156 781.332031 157.332031 C 784.078125 166.535156 787.636719 175.421875 792 184 C 796.933594 177.917969 801.382812 177.917969 805.332031 184 C 807.109375 178.667969 808.890625 173.332031 810.667969 168 C 819.808594 166.425781 829.585938 168.203125 840 173.332031 Z M 840 173.332031 "/>
<path style=" stroke:none;fill-rule:evenodd;fill:rgb(90.588236%,67.450982%,21.568628%);fill-opacity:1;" d="M 664 173.332031 C 775.71875 255.117188 813.941406 363.5625 778.667969 498.667969 C 772.59375 517.933594 763.703125 535.710938 752 552 C 751.894531 524.144531 746.558594 497.480469 736 472 C 720.535156 440.074219 701.867188 410.738281 680 384 C 694.089844 354.980469 694.089844 325.648438 680 296 C 694.859375 282.894531 705.523438 266.894531 712 248 C 698.742188 200.613281 672.074219 189.945312 632 216 C 619.285156 203.28125 605.066406 192.613281 589.332031 184 C 573.214844 183.5625 557.214844 187.117188 541.332031 194.667969 C 542.132812 172.355469 531.464844 159.914062 509.332031 157.332031 C 481.074219 162.40625 470.410156 178.40625 477.332031 205.332031 C 453.429688 248.894531 424.984375 289.78125 392 328 C 376.730469 320.726562 366.0625 309.171875 360 293.332031 C 330.4375 279.679688 301.992188 264.570312 274.667969 248 C 383.792969 120.761719 513.570312 95.871094 664 173.332031 Z M 664 173.332031 "/>
<path style=" stroke:none;fill-rule:evenodd;fill:rgb(95.294118%,91.764706%,83.529413%);fill-opacity:1;" d="M 840 173.332031 C 829.585938 168.203125 819.808594 166.425781 810.667969 168 C 808.890625 173.332031 807.109375 178.667969 805.332031 184 C 801.382812 177.917969 796.933594 177.917969 792 184 C 787.636719 175.421875 784.078125 166.535156 781.332031 157.332031 C 786.511719 149.535156 784.734375 142.425781 776 136 C 774.671875 141.769531 773.785156 148.882812 773.332031 157.332031 C 762.523438 161.128906 757.1875 166.460938 757.332031 173.332031 C 754.421875 169.125 750.863281 163.789062 746.667969 157.332031 C 732.609375 157.574219 717.492188 158.464844 701.332031 160 C 708.484375 166.90625 715.59375 169.574219 722.667969 168 C 721.550781 171.125 719.769531 173.792969 717.332031 176 C 727.945312 185.8125 727.945312 192.035156 717.332031 194.667969 C 706.375 183.707031 693.929688 174.820312 680 168 C 609.542969 119.300781 531.320312 102.410156 445.332031 117.332031 C 367.960938 138.871094 305.738281 179.761719 258.667969 240 C 244.863281 234.1875 232.421875 236.851562 221.332031 248 C 196.414062 275.246094 194.636719 302.800781 216 330.667969 C 194.164062 441.613281 220.832031 538.5 296 621.332031 C 291.015625 627.03125 289.238281 634.136719 290.667969 642.667969 C 272.230469 643.558594 270.453125 648.890625 285.332031 658.667969 C 294.527344 652.476562 303.414062 653.359375 312 661.332031 C 307.429688 665.007812 303.875 669.449219 301.332031 674.667969 C 303.109375 681.777344 304.890625 688.890625 306.667969 696 C 287.496094 704.003906 267.941406 709.339844 248 712 C 254.847656 743.929688 254.847656 775.929688 248 808 C 267.554688 808 287.109375 808 306.667969 808 C 294.222656 811.558594 281.777344 815.109375 269.332031 818.667969 C 248.269531 811.851562 233.15625 818.964844 224 840 C 209.777344 832.890625 199.109375 822.222656 192 808 C 182.460938 817.222656 170.902344 820.777344 157.332031 818.667969 C 45.503906 687.695312 12.613281 538.363281 58.667969 370.667969 C 116.945312 200.558594 233.390625 93.003906 408 48 C 574.191406 17.214844 718.191406 58.992188 840 173.332031 Z M 840 173.332031 "/>
<path style=" stroke:none;fill-rule:evenodd;fill:rgb(37.254903%,36.862746%,32.156864%);fill-opacity:1;" d="M 258.667969 168 C 268.515625 166.519531 275.625 170.074219 280 178.667969 C 275.625 187.257812 268.515625 190.816406 258.667969 189.332031 C 258.667969 182.222656 258.667969 175.109375 258.667969 168 Z M 258.667969 168 "/>
<path style=" stroke:none;fill-rule:evenodd;fill:rgb(25.098041%,24.313726%,18.039216%);fill-opacity:1;" d="M 680 168 C 673.113281 166.734375 667.78125 168.511719 664 173.332031 C 513.570312 95.871094 383.792969 120.761719 274.667969 248 C 301.992188 264.570312 330.4375 279.679688 360 293.332031 C 366.0625 309.171875 376.730469 320.726562 392 328 C 424.984375 289.78125 453.429688 248.894531 477.332031 205.332031 C 481.804688 207.15625 483.582031 210.710938 482.667969 216 C 472.886719 226.695312 463.996094 238.25 456 250.667969 C 467.148438 252.09375 474.257812 246.761719 477.332031 234.667969 C 484.445312 231.109375 491.554688 231.109375 498.667969 234.667969 C 495.109375 236.445312 491.554688 238.222656 488 240 C 500.71875 255.386719 500.71875 271.386719 488 288 C 494.25 290.234375 499.585938 293.789062 504 298.667969 C 486.613281 296.097656 468.835938 296.097656 450.667969 298.667969 C 458.976562 299.785156 466.089844 302.453125 472 306.667969 C 466.304688 311.652344 459.195312 313.429688 450.667969 312 C 450.667969 317.332031 450.667969 322.667969 450.667969 328 C 446.390625 320.257812 443.722656 311.367188 442.667969 301.332031 C 431.878906 313.4375 427.433594 327.65625 429.332031 344 C 426.21875 355.960938 419.996094 366.628906 410.667969 376 C 403.894531 364.914062 395.894531 363.136719 386.667969 370.667969 C 381.378906 371.582031 377.824219 369.804688 376 365.332031 C 378.335938 365.683594 380.113281 364.792969 381.332031 362.667969 C 374.222656 359.109375 367.109375 355.554688 360 352 C 365.054688 349.425781 370.390625 348.535156 376 349.332031 C 387.105469 349.183594 396.882812 352.738281 405.332031 360 C 406.222656 357.332031 407.109375 354.667969 408 352 C 395.730469 340.503906 381.507812 331.613281 365.332031 325.332031 C 362.109375 312.171875 355 301.507812 344 293.332031 C 315.488281 283.835938 287.929688 272.28125 261.332031 258.667969 C 259.554688 262.222656 257.777344 265.777344 256 269.332031 C 247.441406 243.363281 235.886719 241.585938 221.332031 264 C 222.222656 265.777344 223.109375 267.554688 224 269.332031 C 227.675781 264.765625 232.121094 261.210938 237.332031 258.667969 C 245.8125 279.085938 240.476562 295.085938 221.332031 306.667969 C 217.078125 298.253906 214.410156 289.363281 213.332031 280 C 209.777344 290.667969 209.777344 301.332031 213.332031 312 C 217.160156 317.070312 221.605469 317.957031 226.667969 314.667969 C 236.582031 306.359375 244.582031 296.582031 250.667969 285.332031 C 248.644531 293.734375 249.535156 301.734375 253.332031 309.332031 C 274.667969 318.222656 296 327.109375 317.332031 336 C 292.886719 336.308594 269.777344 330.089844 248 317.332031 C 243.769531 321.894531 245.546875 326.339844 253.332031 330.667969 C 250.164062 333.144531 246.609375 334.03125 242.667969 333.332031 C 209.464844 432.4375 229.019531 521.328125 301.332031 600 C 305.605469 608.222656 307.382812 617.109375 306.667969 626.667969 C 303.109375 624.890625 299.554688 623.109375 296 621.332031 C 220.832031 538.5 194.164062 441.613281 216 330.667969 C 194.636719 302.800781 196.414062 275.246094 221.332031 248 C 232.421875 236.851562 244.863281 234.1875 258.667969 240 C 305.738281 179.761719 367.960938 138.871094 445.332031 117.332031 C 531.320312 102.410156 609.542969 119.300781 680 168 Z M 680 168 "/>
<path style=" stroke:none;fill-rule:evenodd;fill:rgb(92.156863%,88.627452%,79.607844%);fill-opacity:1;" d="M 520 424 C 527.199219 417.867188 526.3125 414.3125 517.332031 413.332031 C 488.632812 423.996094 463.742188 418.664062 442.667969 397.332031 C 439.109375 390.222656 439.109375 383.109375 442.667969 376 C 450.3125 397.480469 463.644531 404.59375 482.667969 397.332031 C 502.207031 390.042969 503.984375 378.488281 488 362.667969 C 475.480469 358.871094 464.8125 352.648438 456 344 C 468.980469 336.078125 481.421875 327.191406 493.332031 317.332031 C 487.589844 310.90625 480.480469 307.351562 472 306.667969 C 466.089844 302.453125 458.976562 299.785156 450.667969 298.667969 C 468.835938 296.097656 486.613281 296.097656 504 298.667969 C 499.585938 293.789062 494.25 290.234375 488 288 C 500.71875 271.386719 500.71875 255.386719 488 240 C 491.554688 238.222656 495.109375 236.445312 498.667969 234.667969 C 491.554688 231.109375 484.445312 231.109375 477.332031 234.667969 C 474.257812 246.761719 467.148438 252.09375 456 250.667969 C 463.996094 238.25 472.886719 226.695312 482.667969 216 C 512.089844 198.34375 542.308594 196.566406 573.332031 210.667969 C 578.28125 200.882812 584.5 199.101562 592 205.332031 C 593.777344 201.777344 595.558594 198.222656 597.332031 194.667969 C 617.140625 207.277344 627.808594 225.054688 629.332031 248 C 637.703125 255.667969 645.703125 263.667969 653.332031 272 C 647.460938 284.226562 651.902344 292.226562 666.667969 296 C 683.777344 324.332031 683.777344 352.777344 666.667969 381.332031 C 664.890625 377.777344 663.109375 374.222656 661.332031 370.667969 C 652.746094 391.699219 638.523438 407.699219 618.667969 418.667969 C 616.890625 415.109375 615.109375 411.554688 613.332031 408 C 600.15625 412.804688 586.820312 418.140625 573.332031 424 C 571.558594 420.445312 569.777344 416.890625 568 413.332031 C 553.195312 422.027344 537.195312 425.582031 520 424 Z M 520 424 "/>
<path style=" stroke:none;fill-rule:evenodd;fill:rgb(81.960785%,79.607844%,72.156864%);fill-opacity:1;" d="M 280 210.667969 C 286.265625 209.5 291.601562 211.277344 296 216 C 287.722656 222.921875 282.390625 221.144531 280 210.667969 Z M 280 210.667969 "/>
<path style=" stroke:none;fill-rule:evenodd;fill:rgb(40.784314%,35.686275%,22.745098%);fill-opacity:1;" d="M 333.332031 221.332031 C 340.445312 221.332031 347.554688 221.332031 354.667969 221.332031 C 354.667969 226.667969 354.667969 232 354.667969 237.332031 C 347.554688 237.332031 340.445312 237.332031 333.332031 237.332031 C 333.332031 232 333.332031 226.667969 333.332031 221.332031 Z M 333.332031 221.332031 "/>
<path style=" stroke:none;fill-rule:evenodd;fill:rgb(34.117648%,33.725491%,29.019609%);fill-opacity:1;" d="M 552 232 C 569.914062 233.054688 579.691406 241.945312 581.332031 258.667969 C 571.007812 249.308594 561.226562 240.421875 552 232 Z M 552 232 "/>
<path style=" stroke:none;fill-rule:evenodd;fill:rgb(45.490196%,38.82353%,23.137255%);fill-opacity:1;" d="M 317.332031 242.667969 C 325.589844 244.378906 329.144531 249.714844 328 258.667969 C 313.347656 259.191406 309.789062 253.859375 317.332031 242.667969 Z M 317.332031 242.667969 "/>
<path style=" stroke:none;fill-rule:evenodd;fill:rgb(21.176471%,21.568628%,16.470589%);fill-opacity:1;" d="M 541.332031 253.332031 C 579.296875 258.421875 600.628906 280.644531 605.332031 320 C 597.433594 350.203125 580.550781 356.425781 554.667969 338.667969 C 552.976562 348.269531 549.417969 350.046875 544 344 C 520.945312 313.730469 520.054688 283.507812 541.332031 253.332031 Z M 541.332031 253.332031 "/>
<path style=" stroke:none;fill-rule:evenodd;fill:rgb(56.470591%,40.784314%,16.862746%);fill-opacity:1;" d="M 376 349.332031 C 367.136719 341.414062 357.359375 334.304688 346.667969 328 C 335.445312 337.488281 323 344.597656 309.332031 349.332031 C 294 344.785156 278.890625 339.453125 264 333.332031 C 260.765625 333.992188 258.988281 335.769531 258.667969 338.667969 C 251.78125 339.933594 246.449219 338.15625 242.667969 333.332031 C 246.609375 334.03125 250.164062 333.144531 253.332031 330.667969 C 245.546875 326.339844 243.769531 321.894531 248 317.332031 C 269.777344 330.089844 292.886719 336.308594 317.332031 336 C 296 327.109375 274.667969 318.222656 253.332031 309.332031 C 249.535156 301.734375 248.644531 293.734375 250.667969 285.332031 C 244.582031 296.582031 236.582031 306.359375 226.667969 314.667969 C 221.605469 317.957031 217.160156 317.070312 213.332031 312 C 209.777344 301.332031 209.777344 290.667969 213.332031 280 C 214.410156 289.363281 217.078125 298.253906 221.332031 306.667969 C 240.476562 295.085938 245.8125 279.085938 237.332031 258.667969 C 232.121094 261.210938 227.675781 264.765625 224 269.332031 C 223.109375 267.554688 222.222656 265.777344 221.332031 264 C 235.886719 241.585938 247.441406 243.363281 256 269.332031 C 257.777344 265.777344 259.554688 262.222656 261.332031 258.667969 C 287.929688 272.28125 315.488281 283.835938 344 293.332031 C 355 301.507812 362.109375 312.171875 365.332031 325.332031 C 381.507812 331.613281 395.730469 340.503906 408 352 C 407.109375 354.667969 406.222656 357.332031 405.332031 360 C 396.882812 352.738281 387.105469 349.183594 376 349.332031 Z M 376 349.332031 "/>
<path style=" stroke:none;fill-rule:evenodd;fill:rgb(81.568629%,79.607844%,72.941178%);fill-opacity:1;" d="M 450.667969 274.667969 C 458.757812 274.722656 464.980469 278.277344 469.332031 285.332031 C 473.160156 280.261719 477.605469 279.375 482.667969 282.667969 C 467.5 294.878906 456.832031 292.210938 450.667969 274.667969 Z M 450.667969 274.667969 "/>
<path style=" stroke:none;fill-rule:evenodd;fill:rgb(85.09804%,78.431374%,65.098041%);fill-opacity:1;" d="M 269.332031 280 C 270.585938 276.816406 273.253906 275.039062 277.332031 274.667969 C 295.824219 280.15625 310.046875 289.046875 320 301.332031 C 303.386719 293.46875 286.496094 286.355469 269.332031 280 Z M 269.332031 280 "/>
<path style=" stroke:none;fill-rule:evenodd;fill:rgb(82.352942%,80.000001%,71.764708%);fill-opacity:1;" d="M 541.332031 290.667969 C 552.863281 298.824219 565.308594 303.269531 578.667969 304 C 560.054688 316.683594 547.609375 312.238281 541.332031 290.667969 Z M 541.332031 290.667969 "/>
<path style=" stroke:none;fill-rule:evenodd;fill:rgb(87.058824%,84.313726%,76.078433%);fill-opacity:1;" d="M 418.667969 296 C 423.984375 295.839844 427.539062 298.507812 429.332031 304 C 426.070312 314.972656 420.738281 324.753906 413.332031 333.332031 C 406.15625 319.46875 407.933594 307.023438 418.667969 296 Z M 418.667969 296 "/>
<path style=" stroke:none;fill-rule:evenodd;fill:rgb(90.196079%,87.058824%,78.431374%);fill-opacity:1;" d="M 450.667969 328 C 450.667969 335.109375 450.667969 342.222656 450.667969 349.332031 C 442.136719 350.761719 435.027344 348.984375 429.332031 344 C 427.433594 327.65625 431.878906 313.4375 442.667969 301.332031 C 443.722656 311.367188 446.390625 320.257812 450.667969 328 Z M 450.667969 328 "/>
<path style=" stroke:none;fill-rule:evenodd;fill:rgb(19.607843%,20%,14.901961%);fill-opacity:1;" d="M 472 306.667969 C 480.480469 307.351562 487.589844 310.90625 493.332031 317.332031 C 481.421875 327.191406 468.980469 336.078125 456 344 C 464.8125 352.648438 475.480469 358.871094 488 362.667969 C 503.984375 378.488281 502.207031 390.042969 482.667969 397.332031 C 463.644531 404.59375 450.3125 397.480469 442.667969 376 C 439.109375 383.109375 439.109375 390.222656 442.667969 397.332031 C 463.742188 418.664062 488.632812 423.996094 517.332031 413.332031 C 526.3125 414.3125 527.199219 417.867188 520 424 C 509.484375 429.070312 498.816406 434.40625 488 440 C 491.015625 444.21875 495.460938 444.21875 501.332031 440 C 519.789062 443.828125 538.457031 446.496094 557.332031 448 C 529.988281 456.136719 529.988281 461.472656 557.332031 464 C 554.367188 466.039062 552.59375 468.707031 552 472 C 494.390625 442.757812 437.503906 443.644531 381.332031 474.667969 C 361.226562 491.183594 345.226562 510.742188 333.332031 533.332031 C 334.589844 537.988281 336.367188 542.4375 338.667969 546.667969 C 324.675781 569.617188 320.230469 594.507812 325.332031 621.332031 C 327.109375 617.777344 328.890625 614.222656 330.667969 610.667969 C 343.429688 639.828125 365.648438 658.496094 397.332031 666.667969 C 426.417969 677.960938 456.636719 682.410156 488 680 C 487.410156 683.289062 485.632812 685.957031 482.667969 688 C 488.378906 692.542969 493.710938 696.988281 498.667969 701.332031 C 424.722656 700.414062 360.722656 675.53125 306.667969 626.667969 C 307.382812 617.109375 305.605469 608.222656 301.332031 600 C 304.394531 571.894531 313.285156 545.226562 328 520 C 314.09375 515.636719 299.875 512.96875 285.332031 512 C 239.734375 460.074219 230.847656 402.296875 258.667969 338.667969 C 258.988281 335.769531 260.765625 333.992188 264 333.332031 C 278.890625 339.453125 294 344.785156 309.332031 349.332031 C 323 344.597656 335.445312 337.488281 346.667969 328 C 357.359375 334.304688 367.136719 341.414062 376 349.332031 C 370.390625 348.535156 365.054688 349.425781 360 352 C 367.109375 355.554688 374.222656 359.109375 381.332031 362.667969 C 380.113281 364.792969 378.335938 365.683594 376 365.332031 C 358.484375 364.101562 345.148438 371.214844 336 386.667969 C 337.234375 411.652344 350.566406 419.652344 376 410.667969 C 392.503906 406.859375 408.503906 401.527344 424 394.667969 C 413.695312 383.246094 401.25 375.246094 386.667969 370.667969 C 395.894531 363.136719 403.894531 364.914062 410.667969 376 C 419.996094 366.628906 426.21875 355.960938 429.332031 344 C 435.027344 348.984375 442.136719 350.761719 450.667969 349.332031 C 450.667969 342.222656 450.667969 335.109375 450.667969 328 C 450.667969 322.667969 450.667969 317.332031 450.667969 312 C 459.195312 313.429688 466.304688 311.652344 472 306.667969 Z M 472 306.667969 "/>
<path style=" stroke:none;fill-rule:evenodd;fill:rgb(87.843138%,66.274512%,22.745098%);fill-opacity:1;" d="M 376 365.332031 C 377.824219 369.804688 381.378906 371.582031 386.667969 370.667969 C 401.25 375.246094 413.695312 383.246094 424 394.667969 C 408.503906 401.527344 392.503906 406.859375 376 410.667969 C 350.566406 419.652344 337.234375 411.652344 336 386.667969 C 345.148438 371.214844 358.484375 364.101562 376 365.332031 Z M 376 365.332031 "/>
<path style=" stroke:none;fill-rule:evenodd;fill:rgb(68.627453%,67.450982%,61.176473%);fill-opacity:1;" d="M 429.332031 360 C 437.214844 358.601562 444.328125 360.378906 450.667969 365.332031 C 446.265625 370.058594 440.933594 371.835938 434.667969 370.667969 C 435.503906 377.992188 434.613281 385.101562 432 392 C 422.996094 382.296875 422.105469 371.628906 429.332031 360 Z M 429.332031 360 "/>
<path style=" stroke:none;fill-rule:evenodd;fill:rgb(17.254902%,17.647059%,12.54902%);fill-opacity:1;" d="M 664 173.332031 C 667.78125 168.511719 673.113281 166.734375 680 168 C 693.929688 174.820312 706.375 183.707031 717.332031 194.667969 C 742.511719 222.542969 764.734375 252.765625 784 285.332031 C 841.621094 454.320312 794.511719 584.097656 642.667969 674.667969 C 597.113281 695.75 549.113281 704.640625 498.667969 701.332031 C 493.710938 696.988281 488.378906 692.542969 482.667969 688 C 485.632812 685.957031 487.410156 683.289062 488 680 C 524.257812 670.574219 558.03125 655.464844 589.332031 634.667969 C 582.222656 631.109375 575.109375 627.558594 568 624 C 539.558594 622.222656 511.109375 620.441406 482.667969 618.667969 C 465.328125 610.1875 456.441406 595.960938 456 576 C 479.085938 532.078125 514.640625 518.746094 562.667969 536 C 580.757812 533.925781 598.535156 530.367188 616 525.332031 C 599.367188 501.5625 578.03125 483.785156 552 472 C 552.59375 468.707031 554.367188 466.039062 557.332031 464 C 529.988281 461.472656 529.988281 456.136719 557.332031 448 C 538.457031 446.496094 519.789062 443.828125 501.332031 440 C 495.460938 444.21875 491.015625 444.21875 488 440 C 498.816406 434.40625 509.484375 429.070312 520 424 C 537.195312 425.582031 553.195312 422.027344 568 413.332031 C 569.777344 416.890625 571.558594 420.445312 573.332031 424 C 586.820312 418.140625 600.15625 412.804688 613.332031 408 C 615.109375 411.554688 616.890625 415.109375 618.667969 418.667969 C 638.523438 407.699219 652.746094 391.699219 661.332031 370.667969 C 663.109375 374.222656 664.890625 377.777344 666.667969 381.332031 C 683.777344 352.777344 683.777344 324.332031 666.667969 296 C 651.902344 292.226562 647.460938 284.226562 653.332031 272 C 645.703125 263.667969 637.703125 255.667969 629.332031 248 C 627.808594 225.054688 617.140625 207.277344 597.332031 194.667969 C 595.558594 198.222656 593.777344 201.777344 592 205.332031 C 584.5 199.101562 578.28125 200.882812 573.332031 210.667969 C 542.308594 196.566406 512.089844 198.34375 482.667969 216 C 483.582031 210.710938 481.804688 207.15625 477.332031 205.332031 C 470.410156 178.40625 481.074219 162.40625 509.332031 157.332031 C 531.464844 159.914062 542.132812 172.355469 541.332031 194.667969 C 557.214844 187.117188 573.214844 183.5625 589.332031 184 C 605.066406 192.613281 619.285156 203.28125 632 216 C 672.074219 189.945312 698.742188 200.613281 712 248 C 705.523438 266.894531 694.859375 282.894531 680 296 C 694.089844 325.648438 694.089844 354.980469 680 384 C 701.867188 410.738281 720.535156 440.074219 736 472 C 746.558594 497.480469 751.894531 524.144531 752 552 C 763.703125 535.710938 772.59375 517.933594 778.667969 498.667969 C 813.941406 363.5625 775.71875 255.117188 664 173.332031 Z M 664 173.332031 "/>
<path style=" stroke:none;fill-rule:evenodd;fill:rgb(54.509807%,38.82353%,14.901961%);fill-opacity:1;" d="M 482.667969 397.332031 C 472.820312 398.816406 465.707031 395.257812 461.332031 386.667969 C 468.53125 378.933594 477.421875 375.378906 488 376 C 488.359375 383.78125 486.582031 390.890625 482.667969 397.332031 Z M 482.667969 397.332031 "/>
<path style=" stroke:none;fill-rule:evenodd;fill:rgb(51.764709%,51.764709%,46.27451%);fill-opacity:1;" d="M 418.667969 418.667969 C 424.132812 420.78125 425.023438 424.335938 421.332031 429.332031 C 415.394531 439.089844 407.394531 443.535156 397.332031 442.667969 C 405.554688 435.355469 412.664062 427.355469 418.667969 418.667969 Z M 418.667969 418.667969 "/>
<path style=" stroke:none;fill-rule:evenodd;fill:rgb(92.941177%,89.411765%,80.392158%);fill-opacity:1;" d="M 552 472 C 578.03125 483.785156 599.367188 501.5625 616 525.332031 C 598.535156 530.367188 580.757812 533.925781 562.667969 536 C 514.640625 518.746094 479.085938 532.078125 456 576 C 456.441406 595.960938 465.328125 610.1875 482.667969 618.667969 C 511.109375 620.441406 539.558594 622.222656 568 624 C 575.109375 627.558594 582.222656 631.109375 589.332031 634.667969 C 558.03125 655.464844 524.257812 670.574219 488 680 C 456.636719 682.410156 426.417969 677.960938 397.332031 666.667969 C 365.648438 658.496094 343.429688 639.828125 330.667969 610.667969 C 328.890625 614.222656 327.109375 617.777344 325.332031 621.332031 C 320.230469 594.507812 324.675781 569.617188 338.667969 546.667969 C 336.367188 542.4375 334.589844 537.988281 333.332031 533.332031 C 345.226562 510.742188 361.226562 491.183594 381.332031 474.667969 C 437.503906 443.644531 494.390625 442.757812 552 472 Z M 552 472 "/>
<path style=" stroke:none;fill-rule:evenodd;fill:rgb(53.333336%,52.549022%,47.058824%);fill-opacity:1;" d="M 626.667969 482.667969 C 629.957031 483.257812 632.625 485.035156 634.667969 488 C 637.308594 498.519531 638.199219 509.1875 637.332031 520 C 648.144531 519.136719 658.8125 520.023438 669.332031 522.667969 C 656.644531 525.941406 644.203125 527.71875 632 528 C 628.441406 515.554688 624.890625 503.109375 621.332031 490.667969 C 624.296875 488.625 626.074219 485.960938 626.667969 482.667969 Z M 626.667969 482.667969 "/>
<path style=" stroke:none;fill-rule:evenodd;fill:rgb(89.411765%,66.666669%,21.568628%);fill-opacity:1;" d="M 242.667969 333.332031 C 246.449219 338.15625 251.78125 339.933594 258.667969 338.667969 C 230.847656 402.296875 239.734375 460.074219 285.332031 512 C 299.875 512.96875 314.09375 515.636719 328 520 C 313.285156 545.226562 304.394531 571.894531 301.332031 600 C 229.019531 521.328125 209.464844 432.4375 242.667969 333.332031 Z M 242.667969 333.332031 "/>
<path style=" stroke:none;fill-rule:evenodd;fill:rgb(18.82353%,19.215687%,14.509805%);fill-opacity:1;" d="M 248 712 C 271.179688 711.113281 294.289062 712.003906 317.332031 714.667969 C 342.527344 727.652344 350.527344 748.101562 341.332031 776 C 333.367188 791.007812 321.8125 801.675781 306.667969 808 C 287.109375 808 267.554688 808 248 808 C 254.847656 775.929688 254.847656 743.929688 248 712 Z M 248 712 "/>
<path style=" stroke:none;fill-rule:evenodd;fill:rgb(18.039216%,18.431373%,13.333334%);fill-opacity:1;" d="M 653.332031 712 C 649.070312 727.625 647.296875 743.625 648 760 C 649.476562 775.722656 647.703125 790.832031 642.667969 805.332031 C 635.558594 808.890625 628.441406 808.890625 621.332031 805.332031 C 610.4375 787.984375 598.878906 771.09375 586.667969 754.667969 C 582.714844 770.996094 583.601562 786.996094 589.332031 802.667969 C 577.371094 807.863281 564.929688 809.644531 552 808 C 562.273438 780.777344 564.9375 752.332031 560 722.667969 C 557.332031 720 554.667969 717.332031 552 714.667969 C 564.441406 711.109375 576.890625 711.109375 589.332031 714.667969 C 600.890625 729.777344 612.441406 744.890625 624 760 C 627.882812 745.441406 626.996094 731.214844 621.332031 717.332031 C 631.445312 712.179688 642.113281 710.40625 653.332031 712 Z M 653.332031 712 "/>
<path style=" stroke:none;fill-rule:evenodd;fill:rgb(16.470589%,17.254902%,12.156863%);fill-opacity:1;" d="M 674.667969 808 C 669.347656 808.160156 665.792969 805.492188 664 800 C 670.816406 773.460938 670.816406 747.679688 664 722.667969 C 667.476562 716.132812 673.703125 712.574219 682.667969 712 C 688.890625 713.777344 695.109375 715.558594 701.332031 717.332031 C 695.035156 726.390625 695.035156 735.28125 701.332031 744 C 711.785156 734.449219 718.894531 722.894531 722.667969 709.332031 C 736.28125 704.792969 748.726562 706.570312 760 714.667969 C 749.214844 725.449219 738.550781 736.117188 728 746.667969 C 742.273438 765.441406 752.9375 785.886719 760 808 C 747.429688 808.871094 734.988281 807.984375 722.667969 805.332031 C 723.296875 791.199219 717.960938 777.867188 706.667969 765.332031 C 699.300781 768 695.75 773.332031 696 781.332031 C 698.910156 790.054688 700.691406 798.9375 701.332031 808 C 692.441406 808 683.558594 808 674.667969 808 Z M 674.667969 808 "/>
<path style=" stroke:none;fill-rule:evenodd;fill:rgb(89.803922%,86.274511%,78.039217%);fill-opacity:1;" d="M 280 728 C 304.453125 723.15625 316.894531 732.933594 317.332031 757.332031 C 316.894531 781.734375 304.453125 791.507812 280 786.667969 C 280 767.109375 280 747.558594 280 728 Z M 280 728 "/>
<path style=" stroke:none;fill-rule:evenodd;fill:rgb(90.588236%,87.058824%,78.039217%);fill-opacity:1;" d="M 296 621.332031 C 299.554688 623.109375 303.109375 624.890625 306.667969 626.667969 C 360.722656 675.53125 424.722656 700.414062 498.667969 701.332031 C 549.113281 704.640625 597.113281 695.75 642.667969 674.667969 C 640.953125 682.921875 635.621094 686.480469 626.667969 685.332031 C 627.574219 692.382812 625.796875 698.609375 621.332031 704 C 633.109375 705.019531 643.777344 707.683594 653.332031 712 C 642.113281 710.40625 631.445312 712.179688 621.332031 717.332031 C 626.996094 731.214844 627.882812 745.441406 624 760 C 612.441406 744.890625 600.890625 729.777344 589.332031 714.667969 C 576.890625 711.109375 564.441406 711.109375 552 714.667969 C 554.667969 717.332031 557.332031 720 560 722.667969 C 564.9375 752.332031 562.273438 780.777344 552 808 C 564.929688 809.644531 577.371094 807.863281 589.332031 802.667969 C 583.601562 786.996094 582.714844 770.996094 586.667969 754.667969 C 598.878906 771.09375 610.4375 787.984375 621.332031 805.332031 C 628.441406 808.890625 635.558594 808.890625 642.667969 805.332031 C 647.703125 790.832031 649.476562 775.722656 648 760 C 659.878906 750.777344 665.210938 738.335938 664 722.667969 C 670.816406 747.679688 670.816406 773.460938 664 800 C 665.792969 805.492188 669.347656 808.160156 674.667969 808 C 687.109375 811.558594 699.558594 815.109375 712 818.667969 C 699.558594 818.667969 687.109375 818.667969 674.667969 818.667969 C 674 849.820312 665.109375 878.261719 648 904 C 658.113281 909.152344 668.777344 910.929688 680 909.332031 C 680 902.222656 680 895.109375 680 888 C 691.222656 886.40625 701.886719 888.179688 712 893.332031 C 710.222656 896.890625 708.441406 900.441406 706.667969 904 C 721.648438 910.933594 735.871094 910.933594 749.332031 904 C 752.890625 904 756.441406 904 760 904 C 705.054688 944.851562 642.832031 967.96875 573.332031 973.332031 C 512.464844 974.933594 452.019531 971.375 392 962.667969 C 297.480469 940.996094 219.257812 892.996094 157.332031 818.667969 C 170.902344 820.777344 182.460938 817.222656 192 808 C 199.109375 822.222656 209.777344 832.890625 224 840 C 233.15625 818.964844 248.269531 811.851562 269.332031 818.667969 C 281.777344 815.109375 294.222656 811.558594 306.667969 808 C 321.8125 801.675781 333.367188 791.007812 341.332031 776 C 350.527344 748.101562 342.527344 727.652344 317.332031 714.667969 C 294.289062 712.003906 271.179688 711.113281 248 712 C 267.941406 709.339844 287.496094 704.003906 306.667969 696 C 304.890625 688.890625 303.109375 681.777344 301.332031 674.667969 C 303.875 669.449219 307.429688 665.007812 312 661.332031 C 303.414062 653.359375 294.527344 652.476562 285.332031 658.667969 C 270.453125 648.890625 272.230469 643.558594 290.667969 642.667969 C 289.238281 634.136719 291.015625 627.03125 296 621.332031 Z M 296 621.332031 "/>
<path style=" stroke:none;fill-rule:evenodd;fill:rgb(17.254902%,17.647059%,12.941177%);fill-opacity:1;" d="M 370.667969 818.667969 C 385.316406 816.996094 399.539062 818.773438 413.332031 824 C 422.441406 852.214844 433.105469 879.769531 445.332031 906.667969 C 430.789062 911.03125 416.566406 910.144531 402.667969 904 C 404.445312 900.441406 406.222656 896.890625 408 893.332031 C 397.886719 888.179688 387.222656 886.40625 376 888 C 375.09375 895.050781 376.871094 901.273438 381.332031 906.667969 C 368.523438 911.007812 356.078125 910.117188 344 904 C 362.757812 878.769531 371.648438 850.324219 370.667969 818.667969 Z M 370.667969 818.667969 "/>
<path style=" stroke:none;fill-rule:evenodd;fill:rgb(16.470589%,16.862746%,12.156863%);fill-opacity:1;" d="M 269.332031 818.667969 C 290.742188 817.78125 312.074219 818.671875 333.332031 821.332031 C 338.21875 823.328125 342.664062 825.996094 346.667969 829.332031 C 356.445312 868.449219 341.332031 884.449219 301.332031 877.332031 C 300.574219 886.730469 302.351562 895.621094 306.667969 904 C 294.222656 911.109375 281.777344 911.109375 269.332031 904 C 276.171875 875.5625 276.171875 847.113281 269.332031 818.667969 Z M 269.332031 818.667969 "/>
<path style=" stroke:none;fill-rule:evenodd;fill:rgb(85.882354%,83.137256%,75.294119%);fill-opacity:1;" d="M 301.332031 834.667969 C 321.828125 833.019531 328.9375 841.019531 322.667969 858.667969 C 315.769531 861.28125 308.65625 862.171875 301.332031 861.332031 C 301.332031 852.441406 301.332031 843.558594 301.332031 834.667969 Z M 301.332031 834.667969 "/>
<path style=" stroke:none;fill-rule:evenodd;fill:rgb(22.745098%,22.745098%,18.039216%);fill-opacity:1;" d="M 445.332031 712 C 459.664062 711.125 473.886719 712.015625 488 714.667969 C 482.84375 738.136719 481.066406 762.136719 482.667969 786.667969 C 493.160156 787.941406 502.9375 786.164062 512 781.332031 C 516.089844 759.691406 515.199219 738.355469 509.332031 717.332031 C 521.414062 711.214844 533.855469 710.324219 546.667969 714.667969 C 543.535156 740.597656 539.09375 766.378906 533.332031 792 C 508.445312 813.332031 483.554688 813.332031 458.667969 792 C 452.472656 765.691406 448.027344 739.023438 445.332031 712 Z M 445.332031 712 "/>
<path style=" stroke:none;fill-rule:evenodd;fill:rgb(18.82353%,19.215687%,14.509805%);fill-opacity:1;" d="M 354.667969 712 C 377.847656 711.113281 400.957031 712.003906 424 714.667969 C 437.710938 732.164062 437.710938 749.945312 424 768 C 427.109375 781.328125 434.222656 791.996094 445.332031 800 C 435.882812 807.929688 425.214844 809.707031 413.332031 805.332031 C 393.121094 759.003906 386.011719 759.894531 392 808 C 379.429688 808.871094 366.984375 807.984375 354.667969 805.332031 C 352.226562 803.125 350.449219 800.457031 349.332031 797.332031 C 361.621094 769.863281 363.398438 741.414062 354.667969 712 Z M 354.667969 712 "/>
<path style=" stroke:none;fill-rule:evenodd;fill:rgb(89.411765%,85.882354%,77.64706%);fill-opacity:1;" d="M 386.667969 728 C 393.777344 728 400.890625 728 408 728 C 408 735.109375 408 742.222656 408 749.332031 C 400.890625 749.332031 393.777344 749.332031 386.667969 749.332031 C 386.667969 742.222656 386.667969 735.109375 386.667969 728 Z M 386.667969 728 "/>
<path style=" stroke:none;fill-rule:evenodd;fill:rgb(15.686275%,16.470589%,11.372549%);fill-opacity:1;" d="M 557.332031 818.667969 C 582.917969 816.644531 607.808594 819.3125 632 826.667969 C 650.144531 846.5 652.8125 868.726562 640 893.332031 C 635.183594 899.738281 628.964844 904.1875 621.332031 906.667969 C 599.78125 911.078125 578.449219 910.1875 557.332031 904 C 564.171875 875.5625 564.171875 847.113281 557.332031 818.667969 Z M 557.332031 818.667969 "/>
<path style=" stroke:none;fill-rule:evenodd;fill:rgb(92.156863%,89.019608%,80.000001%);fill-opacity:1;" d="M 589.332031 834.667969 C 611.09375 832.433594 621.761719 842.207031 621.332031 864 C 621.761719 885.792969 611.09375 895.566406 589.332031 893.332031 C 589.332031 873.777344 589.332031 854.222656 589.332031 834.667969 Z M 589.332031 834.667969 "/>
<path style=" stroke:none;fill-rule:evenodd;fill:rgb(82.745099%,80.392158%,72.941178%);fill-opacity:1;" d="M 386.667969 850.667969 C 395.609375 854.308594 399.164062 861.425781 397.332031 872 C 391.066406 873.167969 385.734375 871.390625 381.332031 866.667969 C 384.679688 861.777344 386.457031 856.441406 386.667969 850.667969 Z M 386.667969 850.667969 "/>
<path style=" stroke:none;fill-rule:evenodd;fill:rgb(16.470589%,16.862746%,12.156863%);fill-opacity:1;" d="M 450.667969 818.667969 C 463.59375 817.023438 476.039062 818.804688 488 824 C 496.738281 838.953125 506.515625 853.179688 517.332031 866.667969 C 521.21875 852.105469 520.328125 837.882812 514.667969 824 C 525.332031 816.890625 536 816.890625 546.667969 824 C 541.59375 852.105469 539.8125 880.550781 541.332031 909.332031 C 532.269531 910.1875 523.382812 909.300781 514.667969 906.667969 C 503.109375 891.558594 491.554688 876.441406 480 861.332031 C 476.113281 875.894531 477.003906 890.117188 482.667969 904 C 472 911.109375 461.332031 911.109375 450.667969 904 C 457.503906 875.5625 457.503906 847.113281 450.667969 818.667969 Z M 450.667969 818.667969 "/>
<path style=" stroke:none;fill-rule:evenodd;fill:rgb(16.470589%,16.862746%,11.764706%);fill-opacity:1;" d="M 712 818.667969 C 722.859375 848.015625 735.308594 876.457031 749.332031 904 C 735.871094 910.933594 721.648438 910.933594 706.667969 904 C 708.441406 900.441406 710.222656 896.890625 712 893.332031 C 701.886719 888.179688 691.222656 886.40625 680 888 C 680 895.109375 680 902.222656 680 909.332031 C 668.777344 910.929688 658.113281 909.152344 648 904 C 665.109375 878.261719 674 849.820312 674.667969 818.667969 C 687.109375 818.667969 699.558594 818.667969 712 818.667969 Z M 712 818.667969 "/>
<path style=" stroke:none;fill-rule:evenodd;fill:rgb(87.843138%,85.490197%,77.64706%);fill-opacity:1;" d="M 690.667969 845.332031 C 699.800781 851.386719 703.359375 860.277344 701.332031 872 C 695.066406 873.167969 689.734375 871.390625 685.332031 866.667969 C 689.3125 860.074219 691.089844 852.960938 690.667969 845.332031 Z M 690.667969 845.332031 "/>
<use xlink:href="#surface8" mask="url(#mask1)"/>
</g>
</svg>
