<?xml version="1.0" encoding="UTF-8" standalone="no" ?>
<!DOCTYPE svg PUBLIC "-//W3C//DTD SVG 1.1//EN" "http://www.w3.org/Graphics/SVG/1.1/DTD/svg11.dtd">
<svg xmlns="http://www.w3.org/2000/svg" xmlns:xlink="http://www.w3.org/1999/xlink" version="1.1" width="1080" height="1080" viewBox="0 0 1080 1080" xml:space="preserve">
<desc>Created with Fabric.js 5.2.4</desc>
<defs>
</defs>
<rect x="0" y="0" width="100%" height="100%" fill="transparent"></rect>
<g transform="matrix(1 0 0 1 540 540)" id="053f4364-c0f7-45d2-b4f7-bc4c6b885b85"  >
<rect style="stroke: none; stroke-width: 1; stroke-dasharray: none; stroke-linecap: butt; stroke-dashoffset: 0; stroke-linejoin: miter; stroke-miterlimit: 4; fill: rgb(255,0,0); fill-rule: nonzero; opacity: 1; visibility: hidden;" vector-effect="non-scaling-stroke"  x="-540" y="-540" rx="0" ry="0" width="1080" height="1080" />
</g>
<g transform="matrix(1 0 0 1 540 540)" id="673ce352-a958-4b46-a399-30d95dc8b9c9"  >
</g>
<g transform="matrix(0.13 0 0 -0.13 528.94 394.88)"  >
<path style="stroke: rgb(255,120,0); stroke-opacity: 0.99; stroke-width: 1; stroke-dasharray: none; stroke-linecap: butt; stroke-dashoffset: 0; stroke-linejoin: miter; stroke-miterlimit: 4; fill: rgb(0,0,0); fill-rule: nonzero; opacity: 1;" vector-effect="non-scaling-stroke"  transform=" translate(-5070, -6228.38)" d="M 4930 9439 C 4343 9413 3804 9234 3285 8891 C 3164 8811 2966 8655 2866 8560 C 2794 8491 2791 8490 2752 8496 C 2693 8505 2647 8494 2612 8460 C 2561 8412 2547 8375 2553 8306 C 2558 8248 2557 8245 2521 8200 C 2481 8153 2374 7996 2367 7977 C 2365 7971 2347 7984 2327 8007 C 2236 8107 2122 8108 2014 8008 C 1838 7846 1709 7463 1765 7273 C 1783 7212 1838 7157 1899 7139 C 1922 7132 1940 7121 1940 7114 C 1940 7107 1929 7055 1915 6998 C 1851 6727 1823 6291 1850 5966 C 1914 5193 2224 4513 2758 3973 C 3053 3676 3385 3451 3795 3270 C 4358 3021 5086 2949 5800 3071 C 6107 3124 6517 3273 6773 3426 C 7096 3619 7332 3811 7563 4068 C 7759 4287 7904 4492 8030 4734 C 8214 5084 8344 5535 8381 5951 C 8395 6108 8388 6405 8366 6590 C 8280 7300 7970 7949 7470 8464 C 7258 8682 7063 8833 6784 8994 C 6346 9245 5877 9391 5385 9429 C 5173 9446 5103 9447 4930 9439 z M 5590 9225 C 6059 9147 6411 9022 6752 8812 C 7202 8535 7602 8106 7862 7620 C 8209 6971 8304 6125 8109 5414 C 8029 5121 7952 4940 7783 4646 C 7772 4628 7770 4633 7770 4690 C 7769 4989 7673 5376 7530 5660 C 7481 5757 7370 5940 7317 6010 C 7248 6102 7104 6265 7036 6327 L 6971 6386 L 6985 6428 C 7003 6480 7030 6630 7030 6678 C 7030 6712 7031 6713 7049 6696 C 7060 6686 7077 6680 7087 6682 C 7103 6685 7105 6698 7104 6830 C 7103 7039 7068 7200 6974 7426 C 6955 7472 6940 7513 6940 7518 C 6940 7523 6963 7535 6992 7545 C 7078 7573 7139 7609 7190 7660 C 7293 7765 7335 7937 7294 8093 C 7271 8182 7215 8286 7162 8338 C 7115 8383 7028 8430 6990 8430 C 6963 8430 6965 8443 6993 8455 C 7040 8476 7004 8503 6903 8521 C 6817 8537 6742 8527 6672 8490 C 6609 8456 6496 8354 6485 8320 C 6482 8309 6474 8300 6469 8300 C 6464 8300 6400 8358 6327 8428 C 6194 8558 6096 8628 5990 8670 C 5943 8688 5940 8689 5931 8672 C 5926 8663 5924 8643 5927 8628 L 5932 8601 L 5873 8624 C 5796 8654 5714 8674 5695 8666 C 5672 8658 5677 8637 5711 8590 L 5742 8547 L 5694 8554 C 5667 8557 5606 8563 5558 8567 L 5470 8573 L 5470 8619 C 5469 8784 5389 8905 5244 8960 C 5167 8988 5055 8986 5066 8955 C 5070 8947 5055 8941 5017 8937 C 4947 8930 4894 8903 4843 8847 C 4729 8723 4699 8528 4777 8414 L 4802 8376 L 4773 8356 C 4714 8314 4588 8184 4545 8119 C 4520 8082 4472 7992 4439 7920 C 4365 7755 4342 7724 4233 7630 C 4099 7517 4015 7427 3977 7358 C 3942 7295 3890 7146 3890 7109 C 3890 7099 3887 7090 3883 7090 C 3880 7090 3819 7122 3748 7162 L 3619 7234 L 3574 7327 C 3520 7441 3446 7519 3340 7574 C 3301 7595 3176 7649 3062 7695 C 2764 7814 2541 7907 2531 7916 C 2526 7920 2565 7974 2643 8070 C 2703 8144 2719 8157 2763 8172 C 2822 8191 2857 8228 2866 8280 C 2874 8322 2902 8354 3035 8469 C 3175 8591 3282 8674 3364 8728 C 3403 8753 3458 8788 3487 8807 C 3592 8875 3823 8992 3957 9046 C 4207 9147 4468 9212 4735 9240 C 4796 9246 4854 9253 4865 9255 C 4876 9257 5009 9257 5160 9255 C 5399 9252 5455 9248 5590 9225 z M 6006 8455 C 6048 8430 6084 8411 6087 8413 C 6089 8415 6077 8446 6061 8481 C 6044 8515 6032 8546 6035 8548 C 6045 8558 6176 8446 6293 8327 L 6420 8197 L 6410 8161 C 6364 7996 6457 7844 6553 7928 C 6578 7950 6583 7938 6565 7897 C 6521 7790 6581 7692 6658 7746 C 6671 7755 6683 7760 6686 7757 C 6689 7755 6682 7729 6670 7701 C 6621 7576 6660 7491 6767 7490 C 6818 7490 6820 7489 6839 7453 C 6868 7395 6916 7254 6934 7170 C 6951 7094 6981 6868 6974 6861 C 6973 6860 6961 6867 6949 6879 C 6936 6891 6923 6900 6920 6900 C 6916 6900 6910 6849 6907 6788 C 6902 6678 6872 6480 6861 6480 C 6858 6480 6842 6513 6826 6553 C 6810 6592 6788 6640 6777 6658 L 6757 6692 L 6734 6600 C 6698 6456 6615 6326 6509 6244 C 6451 6199 6325 6128 6281 6115 C 6260 6109 6258 6110 6265 6126 C 6305 6222 6328 6296 6321 6303 C 6307 6317 6288 6301 6227 6229 C 6150 6138 6010 6026 5994 6043 C 5991 6046 6005 6079 6024 6117 C 6077 6220 6074 6222 5975 6149 C 5900 6094 5793 6039 5721 6020 C 5669 6006 5657 6013 5697 6034 C 5763 6068 5885 6200 5851 6200 C 5845 6200 5805 6182 5763 6161 C 5604 6081 5437 6040 5270 6041 L 5175 6041 L 5204 6063 C 5266 6109 5308 6151 5323 6182 C 5332 6200 5337 6216 5335 6218 C 5333 6220 5299 6205 5258 6186 C 5150 6133 5028 6107 4890 6106 C 4709 6105 4583 6151 4469 6261 C 4407 6321 4378 6373 4359 6459 C 4350 6503 4351 6515 4364 6535 C 4373 6549 4386 6560 4393 6560 C 4401 6560 4421 6529 4439 6491 C 4492 6378 4548 6333 4666 6310 C 4736 6296 4818 6308 4887 6341 C 5007 6399 5013 6578 4898 6693 C 4848 6743 4802 6767 4669 6814 C 4627 6829 4583 6850 4571 6861 C 4547 6883 4543 6928 4561 6979 C 4573 7012 4578 7014 4665 7025 C 4734 7034 4814 7076 4877 7135 C 4944 7199 4946 7224 4890 7272 C 4769 7377 4493 7437 4430 7374 C 4379 7323 4399 7180 4470 7091 C 4512 7038 4517 7021 4498 7002 C 4492 6996 4486 6967 4485 6938 L 4483 6885 L 4419 6869 C 4310 6842 4280 6839 4280 6857 C 4280 6866 4266 6901 4249 6936 L 4218 6999 L 4234 7097 C 4258 7239 4318 7345 4403 7394 C 4461 7428 4549 7441 4714 7442 C 4866 7443 4934 7431 5037 7384 C 5067 7370 5094 7361 5096 7363 C 5099 7365 5096 7378 5091 7392 C 5071 7446 4960 7510 4888 7510 C 4873 7510 4860 7512 4860 7514 C 4860 7517 4874 7534 4890 7552 C 4928 7592 4966 7670 4985 7741 C 5013 7846 4999 7932 4947 7976 C 4917 8002 4912 8002 4825 7997 C 4728 7991 4663 7971 4583 7921 C 4557 7904 4534 7893 4531 7896 C 4522 7904 4601 8047 4650 8112 C 4830 8349 5241 8503 5581 8460 C 5633 8454 5719 8437 5772 8424 C 5825 8411 5871 8400 5874 8400 C 5887 8400 5879 8438 5855 8488 C 5841 8518 5830 8544 5830 8546 C 5830 8552 5920 8506 6006 8455 z M 2771 8391 C 2807 8355 2808 8321 2774 8281 C 2731 8230 2663 8246 2635 8313 C 2599 8399 2703 8458 2771 8391 z M 2187 7964 C 2184 7961 2175 7960 2168 7963 C 2160 7966 2163 7969 2174 7969 C 2185 7970 2191 7967 2187 7964 z M 2056 7892 C 2039 7876 2038 7876 2051 7897 C 2058 7909 2066 7917 2069 7914 C 2072 7912 2066 7902 2056 7892 z M 2040 7866 C 2040 7864 2032 7856 2023 7849 C 2007 7836 2006 7837 2019 7853 C 2032 7869 2040 7874 2040 7866 z M 2247 7738 C 2244 7730 2241 7733 2241 7744 C 2240 7755 2243 7761 2246 7757 C 2249 7754 2250 7745 2247 7738 z M 2685 7720 C 2688 7714 2684 7713 2676 7716 C 2658 7723 2655 7730 2669 7730 C 2675 7730 2682 7726 2685 7720 z M 1951 7653 C 1939 7633 1937 7639 1946 7665 C 1950 7674 1955 7679 1957 7676 C 1960 7674 1957 7663 1951 7653 z M 2652 7651 C 2761 7608 2988 7513 3048 7485 C 3090 7465 3100 7456 3100 7435 C 3100 7387 3065 7393 2884 7473 C 2791 7514 2675 7565 2625 7586 C 2546 7621 2535 7629 2532 7653 C 2529 7676 2532 7680 2554 7680 C 2567 7680 2612 7667 2652 7651 z M 4622 7633 C 4624 7603 4631 7592 4653 7582 C 4677 7570 4684 7571 4706 7584 C 4721 7594 4730 7610 4730 7625 C 4730 7648 4734 7650 4773 7650 C 4814 7649 4850 7632 4850 7613 C 4850 7608 4835 7590 4817 7572 C 4791 7547 4769 7538 4705 7525 C 4661 7517 4611 7510 4593 7510 C 4538 7510 4470 7584 4470 7645 C 4470 7670 4471 7670 4544 7670 L 4619 7670 L 4622 7633 z M 1917 7548 C 1914 7540 1911 7543 1911 7554 C 1910 7565 1913 7571 1916 7567 C 1919 7564 1920 7555 1917 7548 z M 4224 7450 C 4228 7430 4239 7416 4257 7408 C 4273 7401 4287 7394 4290 7392 C 4298 7386 4265 7370 4242 7370 C 4221 7370 4219 7366 4222 7323 C 4225 7277 4224 7275 4198 7272 C 4168 7268 4163 7252 4182 7221 C 4191 7206 4190 7191 4177 7150 C 4168 7121 4160 7087 4160 7075 C 4160 7035 4151 7023 4124 7028 C 4111 7030 4080 7027 4056 7020 C 4023 7011 4007 7011 3991 7020 C 3972 7030 3970 7037 3975 7078 C 3985 7152 4028 7274 4063 7326 C 4095 7375 4196 7480 4210 7480 C 4214 7480 4220 7466 4224 7450 z M 1907 7418 C 1904 7410 1901 7413 1901 7424 C 1900 7435 1903 7441 1906 7437 C 1909 7434 1910 7425 1907 7418 z M 2580 7430 C 2580 7425 2576 7420 2570 7420 C 2565 7420 2560 7425 2560 7430 C 2560 7436 2565 7440 2570 7440 C 2576 7440 2580 7436 2580 7430 z M 1867 7358 C 1865 7345 1863 7353 1863 7375 C 1862 7397 1864 7407 1867 7398 C 1869 7388 1869 7370 1867 7358 z M 2264 7355 C 2260 7347 2253 7340 2248 7340 C 2242 7340 2243 7346 2250 7355 C 2257 7363 2264 7370 2266 7370 C 2268 7370 2267 7363 2264 7355 z M 3100 7334 C 3100 7326 3096 7322 3090 7325 C 3085 7328 3080 7338 3080 7346 C 3080 7354 3085 7358 3090 7355 C 3096 7352 3100 7342 3100 7334 z M 3144 7335 C 3138 7319 3120 7314 3120 7328 C 3120 7339 3131 7350 3141 7350 C 3146 7350 3147 7343 3144 7335 z M 2315 7320 C 2318 7314 2314 7313 2306 7316 C 2288 7323 2285 7330 2299 7330 C 2305 7330 2312 7326 2315 7320 z M 3458 7305 C 3455 7302 3449 7307 3446 7317 C 3440 7331 3441 7332 3451 7323 C 3458 7316 3461 7308 3458 7305 z M 4596 7315 C 4654 7300 4689 7280 4658 7280 C 4649 7280 4640 7275 4638 7268 C 4635 7259 4626 7259 4600 7268 C 4582 7275 4557 7280 4546 7280 C 4519 7280 4478 7308 4485 7321 C 4494 7334 4531 7332 4596 7315 z M 2005 7250 C 2002 7245 1991 7240 1982 7241 C 1968 7241 1969 7243 1985 7250 C 2012 7261 2012 7261 2005 7250 z M 2865 7189 C 2874 7175 2862 7130 2850 7130 C 2844 7130 2841 7146 2843 7165 C 2845 7200 2853 7209 2865 7189 z M 3328 7073 C 3318 7071 3302 7071 3293 7073 C 3283 7076 3291 7078 3310 7078 C 3329 7078 3337 7076 3328 7073 z M 3455 7062 C 3452 7059 3444 7062 3437 7069 C 3428 7079 3429 7080 3443 7074 C 3453 7071 3458 7065 3455 7062 z M 3030 7060 C 3030 7055 3026 7050 3020 7050 C 3015 7050 3010 7055 3010 7060 C 3010 7066 3015 7070 3020 7070 C 3026 7070 3030 7066 3030 7060 z M 2320 6981 C 2361 6963 2398 6946 2402 6942 C 2405 6938 2389 6895 2364 6845 C 2310 6735 2256 6571 2235 6453 C 2212 6329 2212 6080 2234 5970 C 2273 5779 2325 5651 2424 5501 C 2455 5454 2480 5416 2480 5415 C 2480 5415 2464 5416 2445 5418 C 2415 5422 2410 5419 2410 5402 C 2410 5392 2419 5372 2429 5358 C 2455 5326 2575 5245 2642 5216 C 2671 5203 2706 5188 2720 5182 C 2743 5172 2741 5171 2700 5171 C 2611 5169 2611 5140 2699 5096 C 2773 5058 2867 5039 3003 5033 C 3073 5030 3130 5025 3130 5023 C 3130 5021 3115 4989 3096 4951 C 2981 4724 2916 4510 2881 4243 L 2865 4121 L 2819 4163 C 2794 4186 2731 4259 2678 4325 C 2287 4817 2073 5346 2019 5951 C 2005 6116 2012 6437 2035 6610 C 2049 6719 2103 7012 2115 7048 C 2120 7061 2171 7044 2320 6981 z M 3230 7046 C 3230 7044 3223 7039 3214 7036 C 3206 7033 3202 7034 3205 7040 C 3211 7050 3230 7054 3230 7046 z M 3855 6972 C 3852 6969 3844 6972 3837 6979 C 3828 6989 3829 6990 3843 6984 C 3853 6981 3858 6975 3855 6972 z M 3385 6970 C 3382 6965 3374 6960 3368 6960 C 3349 6960 3255 6908 3226 6882 C 3210 6867 3185 6837 3169 6816 C 3138 6774 3134 6778 3151 6831 C 3168 6882 3237 6948 3290 6965 C 3344 6981 3394 6984 3385 6970 z M 4027 6848 C 4024 6840 4021 6843 4021 6854 C 4020 6865 4023 6871 4026 6867 C 4029 6864 4030 6855 4027 6848 z M 3547 6844 C 3544 6841 3535 6840 3528 6843 C 3520 6846 3523 6849 3534 6849 C 3545 6850 3551 6847 3547 6844 z M 3635 6820 C 3648 6814 3650 6811 3640 6811 C 3632 6811 3618 6815 3610 6820 C 3592 6832 3608 6832 3635 6820 z M 3687 6804 C 3684 6801 3675 6800 3668 6803 C 3660 6806 3663 6809 3674 6809 C 3685 6810 3691 6807 3687 6804 z M 4177 6768 C 4174 6760 4171 6763 4171 6774 C 4170 6785 4173 6791 4176 6787 C 4179 6784 4180 6775 4177 6768 z M 3805 6770 C 3818 6765 3819 6761 3810 6761 C 3802 6761 3786 6765 3775 6770 C 3762 6775 3761 6779 3770 6779 C 3778 6779 3794 6775 3805 6770 z M 3887 6744 C 3882 6739 3830 6757 3830 6764 C 3830 6767 3844 6764 3861 6758 C 3877 6752 3889 6746 3887 6744 z M 3847 6734 C 3844 6731 3835 6730 3828 6733 C 3820 6736 3823 6739 3834 6739 C 3845 6740 3851 6737 3847 6734 z M 4161 6713 C 4149 6693 4147 6699 4156 6725 C 4160 6734 4165 6739 4167 6736 C 4170 6734 4167 6723 4161 6713 z M 4375 6725 C 4419 6716 4459 6705 4464 6700 C 4479 6685 4462 6661 4433 6655 C 4318 6630 4279 6589 4277 6492 C 4277 6461 4280 6424 4284 6410 L 4292 6385 L 4265 6410 C 4234 6438 4190 6524 4190 6556 C 4190 6567 4205 6597 4224 6621 C 4242 6645 4263 6682 4270 6703 C 4276 6723 4285 6740 4288 6740 C 4292 6740 4331 6733 4375 6725 z M 3683 6663 L 3871 6616 L 3906 6567 C 3954 6501 4028 6472 4080 6500 C 4096 6509 4102 6505 4116 6478 C 4125 6460 4146 6426 4162 6402 C 4179 6378 4190 6357 4188 6356 C 4179 6348 3750 6217 3678 6201 C 3450 6148 3331 6173 3252 6289 C 3225 6328 3181 6457 3192 6464 C 3194 6465 3220 6479 3251 6493 C 3321 6527 3383 6581 3435 6654 C 3457 6684 3480 6710 3485 6710 C 3491 6710 3580 6689 3683 6663 z M 8270 6681 C 8270 6675 8266 6668 8260 6665 C 8255 6662 8250 6666 8250 6674 C 8250 6683 8255 6690 8260 6690 C 8266 6690 8270 6686 8270 6681 z M 4027 6624 C 4024 6621 4015 6620 4008 6623 C 4000 6626 4003 6629 4014 6629 C 4025 6630 4031 6627 4027 6624 z M 3030 6449 C 3040 6443 3030 6441 3001 6442 C 2976 6444 2955 6451 2952 6457 C 2948 6471 3002 6465 3030 6449 z M 4748 6373 C 4738 6371 4722 6371 4713 6373 C 4703 6376 4711 6378 4730 6378 C 4749 6378 4757 6376 4748 6373 z M 4220 6096 C 4220 6085 3907 5789 3902 5795 C 3890 5807 3972 5929 4024 5978 C 4089 6039 4220 6118 4220 6096 z M 3425 6011 C 3422 6005 3414 6000 3408 6000 C 3402 6000 3402 6006 3410 6015 C 3424 6032 3436 6028 3425 6011 z M 3190 6005 C 3190 5997 3186 5990 3180 5990 C 3175 5990 3170 5997 3170 6005 C 3170 6013 3175 6020 3180 6020 C 3186 6020 3190 6013 3190 6005 z M 4873 5749 C 5073 5719 5389 5624 5559 5543 C 5796 5430 6009 5267 6164 5081 C 6220 5014 6280 4928 6280 4916 C 6280 4909 6215 4901 6085 4890 C 6019 4885 5898 4871 5815 4859 L 5665 4837 L 5501 4869 C 5302 4907 5173 4910 5056 4880 C 4919 4845 4830 4788 4789 4708 C 4778 4687 4771 4670 4772 4670 C 4774 4670 4804 4679 4840 4691 C 4876 4702 4943 4713 4990 4715 C 5062 4719 5069 4718 5035 4709 C 4738 4634 4636 4581 4584 4474 C 4551 4406 4553 4328 4591 4277 C 4611 4250 4615 4233 4615 4170 C 4615 4113 4620 4087 4636 4060 C 4663 4013 4714 3980 4759 3980 C 4789 3980 4799 3975 4813 3950 C 4842 3902 4883 3886 4975 3885 C 5041 3885 5066 3890 5116 3913 C 5177 3940 5179 3940 5277 3929 C 5348 3922 5399 3922 5454 3929 L 5531 3940 L 5668 3889 C 5789 3844 5910 3805 6005 3782 C 6035 3774 6034 3773 5940 3712 C 5795 3616 5612 3526 5280 3387 C 5101 3312 4865 3264 4634 3254 C 4498 3248 4472 3249 4384 3270 C 4263 3297 4052 3363 3905 3419 C 3741 3481 3454 3635 3283 3752 C 3238 3782 3244 3768 3173 4000 C 3164 4031 3150 3985 3150 3923 C 3150 3888 3147 3860 3143 3860 C 3139 3860 3123 3872 3108 3887 L 3080 3914 L 3080 4063 C 3080 4173 3085 4238 3100 4313 C 3126 4440 3190 4630 3241 4732 C 3262 4775 3280 4812 3280 4816 C 3280 4829 3223 4785 3177 4736 C 3118 4674 3120 4689 3190 4838 C 3345 5166 3612 5441 3993 5666 C 4099 5729 4119 5734 4094 5690 C 4084 5674 4078 5658 4081 5656 C 4084 5653 4135 5667 4195 5687 C 4256 5706 4350 5731 4405 5740 C 4521 5761 4763 5766 4873 5749 z M 2501 5647 C 2491 5638 2490 5639 2496 5653 C 2499 5663 2505 5668 2508 5665 C 2511 5662 2508 5654 2501 5647 z M 6397 5516 C 6461 5390 6495 5203 6479 5061 C 6474 5015 6472 4975 6474 4973 C 6476 4970 6533 4976 6600 4985 C 6737 5005 6810 5001 6866 4971 L 6905 4951 L 6830 4957 C 6783 4960 6715 4957 6650 4947 C 6592 4938 6521 4929 6492 4925 L 6439 4919 L 6445 4997 C 6456 5129 6410 5269 6322 5377 C 6275 5435 6278 5437 6341 5388 C 6412 5334 6412 5348 6349 5519 C 6327 5577 6310 5626 6310 5629 C 6311 5643 6374 5561 6397 5516 z M 6220 5400 C 6220 5395 6216 5390 6210 5390 C 6205 5390 6200 5395 6200 5400 C 6200 5406 6205 5410 6210 5410 C 6216 5410 6220 5406 6220 5400 z M 6415 5072 C 6412 5068 6405 5072 6400 5080 C 6394 5089 6395 5097 6403 5102 C 6416 5110 6427 5083 6415 5072 z M 7143 4930 C 7146 4919 7144 4910 7139 4910 C 7134 4910 7130 4912 7130 4914 C 7130 4916 7127 4925 7124 4934 C 7121 4943 7122 4950 7128 4950 C 7133 4950 7140 4941 7143 4930 z M 4994 4431 C 4997 4426 4969 4412 4932 4400 C 4860 4376 4761 4329 4718 4299 C 4670 4264 4665 4282 4710 4333 C 4745 4374 4817 4407 4909 4425 C 4994 4442 4988 4441 4994 4431 z M 5085 4162 C 5079 4157 5053 4136 5025 4115 C 4998 4093 4956 4058 4932 4037 C 4908 4016 4886 4001 4883 4003 C 4880 4006 4883 4024 4889 4043 C 4906 4094 4961 4140 5029 4161 C 5065 4171 5096 4172 5085 4162 z M 5711 4072 C 5695 4041 5662 4018 5640 4022 C 5620 4025 5623 4029 5661 4057 C 5711 4094 5725 4098 5711 4072 z M 6900 3759 C 6900 3735 6661 3709 6551 3721 C 6493 3727 6380 3755 6380 3763 C 6380 3764 6497 3765 6640 3765 C 6783 3765 6900 3762 6900 3759 z M 6450 3620 C 6450 3615 6445 3610 6439 3610 C 6434 3610 6432 3615 6435 3620 C 6438 3626 6443 3630 6446 3630 C 6448 3630 6450 3626 6450 3620 z M 4590 3170 C 4590 3165 4586 3160 4580 3160 C 4575 3160 4570 3165 4570 3170 C 4570 3176 4575 3180 4580 3180 C 4586 3180 4590 3176 4590 3170 z" stroke-linecap="round" />
</g>
<g transform="matrix(0.13 0 0 -0.13 306.09 142.97)"  >
<path style="stroke: rgb(255,120,0); stroke-opacity: 0.99; stroke-width: 1; stroke-dasharray: none; stroke-linecap: butt; stroke-dashoffset: 0; stroke-linejoin: miter; stroke-miterlimit: 4; fill: rgb(0,0,0); fill-rule: nonzero; opacity: 1;" vector-effect="non-scaling-stroke"  transform=" translate(-3318.36, -8177.56)" d="M 3251 8259 C 3202 8213 3198 8154 3239 8108 C 3265 8079 3275 8075 3318 8075 C 3376 8075 3403 8094 3421 8147 C 3434 8188 3420 8231 3382 8260 C 3348 8287 3281 8287 3251 8259 z M 3340 8195 C 3358 8174 3345 8148 3318 8152 C 3292 8155 3281 8188 3302 8201 C 3320 8213 3326 8212 3340 8195 z" stroke-linecap="round" />
</g>
<g transform="matrix(0.13 0 0 -0.13 273.02 173.53)"  >
<path style="stroke: none; stroke-width: 1; stroke-dasharray: none; stroke-linecap: butt; stroke-dashoffset: 0; stroke-linejoin: miter; stroke-miterlimit: 4; fill: rgb(0,0,0); fill-rule: nonzero; opacity: 1;" vector-effect="non-scaling-stroke"  transform=" translate(-3069.93, -7945)" d="M 3005 8005 C 2950 7951 2991 7860 3072 7860 C 3124 7860 3160 7895 3160 7945 C 3160 7996 3124 8030 3070 8030 C 3040 8030 3023 8024 3005 8005 z M 3098 7947 C 3102 7927 3073 7913 3058 7928 C 3043 7943 3057 7972 3077 7968 C 3087 7966 3096 7957 3098 7947 z" stroke-linecap="round" />
</g>
<g transform="matrix(0.13 0 0 -0.13 513.52 152.63)"  >
<path style="stroke: none; stroke-width: 1; stroke-dasharray: none; stroke-linecap: butt; stroke-dashoffset: 0; stroke-linejoin: miter; stroke-miterlimit: 4; fill: rgb(0,0,0); fill-rule: nonzero; opacity: 1;" vector-effect="non-scaling-stroke"  transform=" translate(-4875, -8104.42)" d="M 4880 8161 C 4813 8140 4730 8081 4730 8053 C 4730 8037 4743 8037 4800 8054 C 4825 8061 4884 8073 4933 8080 C 5005 8091 5020 8096 5020 8111 C 5020 8154 4946 8181 4880 8161 z" stroke-linecap="round" />
</g>
<g transform="matrix(0.13 0 0 -0.13 630.68 166.14)"  >
<path style="stroke: none; stroke-width: 1; stroke-dasharray: none; stroke-linecap: butt; stroke-dashoffset: 0; stroke-linejoin: miter; stroke-miterlimit: 4; fill: rgb(0,0,0); fill-rule: nonzero; opacity: 1;" vector-effect="non-scaling-stroke"  transform=" translate(-5755, -8000.77)" d="M 5583 8125 C 5570 8116 5560 8102 5560 8094 C 5560 8076 5600 8060 5642 8060 C 5694 8060 5760 8020 5846 7938 C 5928 7859 5950 7846 5950 7878 C 5950 7936 5861 8060 5785 8108 C 5733 8141 5618 8151 5583 8125 z" stroke-linecap="round" />
</g>
<g transform="matrix(0.13 0 0 -0.13 627.11 248.03)"  >
<path style="stroke: rgb(255,120,0); stroke-opacity: 0.99; stroke-width: 1; stroke-dasharray: none; stroke-linecap: butt; stroke-dashoffset: 0; stroke-linejoin: miter; stroke-miterlimit: 4; fill: rgb(0,0,0); fill-rule: nonzero; opacity: 1;" vector-effect="non-scaling-stroke"  transform=" translate(-5734.2, -7372.94)" d="M 5575 7921 C 5452 7889 5352 7780 5314 7635 C 5293 7559 5296 7388 5319 7299 C 5372 7097 5475 6932 5604 6846 C 5625 6832 5653 6820 5665 6820 C 5684 6820 5676 6832 5615 6893 C 5556 6952 5490 7048 5490 7075 C 5490 7079 5512 7057 5539 7028 C 5599 6963 5664 6926 5766 6900 C 5831 6883 5853 6882 5907 6890 C 6019 6908 6100 6963 6147 7053 C 6172 7101 6176 7224 6155 7296 C 6121 7414 5994 7661 5924 7747 C 5887 7792 5787 7871 5728 7901 C 5684 7924 5618 7932 5575 7921 z M 5525 7517 L 5575 7505 L 5572 7463 C 5569 7429 5573 7416 5594 7395 C 5640 7349 5717 7375 5703 7431 C 5696 7456 5704 7455 5799 7419 C 5852 7399 5880 7383 5880 7373 C 5880 7345 5807 7283 5760 7270 C 5708 7256 5634 7262 5591 7285 C 5528 7317 5450 7422 5425 7508 C 5419 7527 5422 7530 5447 7529 C 5462 7529 5497 7523 5525 7517 z" stroke-linecap="round" />
</g>
<g transform="matrix(0.13 0 0 -0.13 774.15 281.25)"  >
<path style="stroke: none; stroke-width: 1; stroke-dasharray: none; stroke-linecap: butt; stroke-dashoffset: 0; stroke-linejoin: miter; stroke-miterlimit: 4; fill: rgb(0,0,0); fill-rule: nonzero; opacity: 1;" vector-effect="non-scaling-stroke"  transform=" translate(-6827.28, -7124.48)" d="M 6780 7195 C 6780 7153 6803 7095 6832 7067 C 6900 6998 6882 7095 6810 7180 C 6785 7209 6781 7212 6780 7195 z" stroke-linecap="round" />
</g>
<g transform="matrix(0.13 0 0 -0.13 771.9 314.77)"  >
<path style="stroke: none; stroke-width: 1; stroke-dasharray: none; stroke-linecap: butt; stroke-dashoffset: 0; stroke-linejoin: miter; stroke-miterlimit: 4; fill: rgb(0,0,0); fill-rule: nonzero; opacity: 1;" vector-effect="non-scaling-stroke"  transform=" translate(-6810.03, -6868.96)" d="M 6783 6899 C 6786 6858 6794 6812 6800 6795 C 6811 6766 6812 6766 6826 6784 C 6845 6811 6843 6867 6821 6916 C 6788 6988 6776 6983 6783 6899 z" stroke-linecap="round" />
</g>
<g transform="matrix(0.13 0 0 -0.13 565.73 338.54)"  >
<path style="stroke: none; stroke-width: 1; stroke-dasharray: none; stroke-linecap: butt; stroke-dashoffset: 0; stroke-linejoin: miter; stroke-miterlimit: 4; fill: rgb(0,0,0); fill-rule: nonzero; opacity: 1;" vector-effect="non-scaling-stroke"  transform=" translate(-5264.09, -6687.69)" d="M 5220 6808 C 5220 6806 5231 6778 5245 6745 C 5261 6705 5270 6665 5270 6625 L 5271 6565 L 5291 6590 C 5308 6610 5311 6623 5306 6663 C 5297 6727 5272 6788 5249 6800 C 5232 6810 5220 6813 5220 6808 z" stroke-linecap="round" />
</g>
<g transform="matrix(0.13 0 0 -0.13 732.39 375.99)"  >
<path style="stroke: none; stroke-width: 1; stroke-dasharray: none; stroke-linecap: butt; stroke-dashoffset: 0; stroke-linejoin: miter; stroke-miterlimit: 4; fill: rgb(0,0,0); fill-rule: nonzero; opacity: 1;" vector-effect="non-scaling-stroke"  transform=" translate(-6513.6, -6402.92)" d="M 6509 6453 C 6492 6409 6482 6343 6490 6330 C 6495 6322 6504 6327 6519 6346 C 6534 6366 6540 6387 6540 6426 C 6540 6485 6526 6497 6509 6453 z" stroke-linecap="round" />
</g>
<g transform="matrix(0.13 0 0 -0.13 384.25 508.11)"  >
<path style="stroke: none; stroke-width: 1; stroke-dasharray: none; stroke-linecap: butt; stroke-dashoffset: 0; stroke-linejoin: miter; stroke-miterlimit: 4; fill: rgb(0,0,0); fill-rule: nonzero; opacity: 1;" vector-effect="non-scaling-stroke"  transform=" translate(-3905, -5396.56)" d="M 3872 5434 C 3819 5408 3780 5369 3780 5343 C 3780 5335 3783 5330 3788 5332 C 3829 5353 3954 5411 3988 5425 C 4011 5435 4030 5447 4030 5452 C 4030 5471 3923 5460 3872 5434 z" stroke-linecap="round" />
</g>
<g transform="matrix(0.13 0 0 -0.13 639.82 537.29)"  >
<path style="stroke: none; stroke-width: 1; stroke-dasharray: none; stroke-linecap: butt; stroke-dashoffset: 0; stroke-linejoin: miter; stroke-miterlimit: 4; fill: rgb(0,0,0); fill-rule: nonzero; opacity: 1;" vector-effect="non-scaling-stroke"  transform=" translate(-5819.78, -5174.29)" d="M 5785 5213 C 5803 5169 5849 5100 5860 5100 C 5864 5100 5864 5121 5859 5148 C 5853 5181 5841 5203 5820 5223 C 5778 5260 5767 5257 5785 5213 z" stroke-linecap="round" />
</g>
<g transform="matrix(0.13 0 0 -0.13 332.87 552.78)"  >
<path style="stroke: none; stroke-width: 1; stroke-dasharray: none; stroke-linecap: butt; stroke-dashoffset: 0; stroke-linejoin: miter; stroke-miterlimit: 4; fill: rgb(0,0,0); fill-rule: nonzero; opacity: 1;" vector-effect="non-scaling-stroke"  transform=" translate(-3518.95, -5056.11)" d="M 3565 5129 C 3517 5105 3458 5050 3434 5004 C 3395 4933 3448 4955 3542 5051 C 3598 5109 3628 5150 3613 5150 C 3609 5149 3587 5140 3565 5129 z" stroke-linecap="round" />
</g>
<g transform="matrix(0.13 0 0 -0.13 616.83 565.86)"  >
<path style="stroke: none; stroke-width: 1; stroke-dasharray: none; stroke-linecap: butt; stroke-dashoffset: 0; stroke-linejoin: miter; stroke-miterlimit: 4; fill: rgb(0,0,0); fill-rule: nonzero; opacity: 1;" vector-effect="non-scaling-stroke"  transform=" translate(-5650, -4957.09)" d="M 5500 4971 C 5500 4953 5575 4935 5655 4935 C 5730 4935 5800 4952 5800 4970 C 5800 4975 5733 4979 5650 4979 C 5560 4980 5500 4977 5500 4971 z" stroke-linecap="round" />
</g>
<g transform="matrix(0.13 0 0 -0.13 293.83 643.63)"  >
<path style="stroke: none; stroke-width: 1; stroke-dasharray: none; stroke-linecap: butt; stroke-dashoffset: 0; stroke-linejoin: miter; stroke-miterlimit: 4; fill: rgb(0,0,0); fill-rule: nonzero; opacity: 1;" vector-effect="non-scaling-stroke"  transform=" translate(-3224.31, -4364.15)" d="M 3206 4428 C 3203 4415 3200 4395 3200 4383 C 3200 4353 3230 4280 3241 4280 C 3247 4280 3250 4316 3248 4362 C 3246 4429 3242 4445 3229 4448 C 3219 4450 3210 4442 3206 4428 z" stroke-linecap="round" />
</g>
<g transform="matrix(0.13 0 0 -0.13 308.62 681.92)"  >
<path style="stroke: none; stroke-width: 1; stroke-dasharray: none; stroke-linecap: butt; stroke-dashoffset: 0; stroke-linejoin: miter; stroke-miterlimit: 4; fill: rgb(0,0,0); fill-rule: nonzero; opacity: 1;" vector-effect="non-scaling-stroke"  transform=" translate(-3335.5, -4072.46)" d="M 3300 4138 C 3300 4096 3321 4040 3346 4013 L 3371 3985 L 3365 4039 C 3362 4069 3353 4108 3345 4127 C 3329 4165 3300 4172 3300 4138 z" stroke-linecap="round" />
</g>
<g transform="matrix(0.13 0 0 -0.13 572.25 726.07)"  >
<path style="stroke: none; stroke-width: 1; stroke-dasharray: none; stroke-linecap: butt; stroke-dashoffset: 0; stroke-linejoin: miter; stroke-miterlimit: 4; fill: rgb(0,0,0); fill-rule: nonzero; opacity: 1;" vector-effect="non-scaling-stroke"  transform=" translate(-5314.25, -3736.36)" d="M 5312 3749 C 5262 3715 5220 3683 5220 3677 C 5220 3663 5290 3679 5328 3702 C 5365 3725 5414 3784 5408 3800 C 5406 3806 5363 3783 5312 3749 z" stroke-linecap="round" />
</g>
<g transform="matrix(0.13 0 0 -0.13 612.13 734.72)"  >
<path style="stroke: none; stroke-width: 1; stroke-dasharray: none; stroke-linecap: butt; stroke-dashoffset: 0; stroke-linejoin: miter; stroke-miterlimit: 4; fill: rgb(0,0,0); fill-rule: nonzero; opacity: 1;" vector-effect="non-scaling-stroke"  transform=" translate(-5613.57, -3670.4)" d="M 5630 3704 C 5545 3651 5492 3606 5511 3602 C 5553 3594 5720 3698 5720 3732 C 5720 3748 5683 3737 5630 3704 z" stroke-linecap="round" />
</g>
<g transform="matrix(0.13 0 0 -0.13 522.27 757.78)"  >
<path style="stroke: none; stroke-width: 1; stroke-dasharray: none; stroke-linecap: butt; stroke-dashoffset: 0; stroke-linejoin: miter; stroke-miterlimit: 4; fill: rgb(0,0,0); fill-rule: nonzero; opacity: 1;" vector-effect="non-scaling-stroke"  transform=" translate(-4940.45, -3494.98)" d="M 4936 3514 C 4802 3484 4784 3476 4823 3461 C 4865 3445 4909 3448 4977 3470 C 5040 3492 5103 3541 5064 3539 C 5054 3538 4996 3527 4936 3514 z" stroke-linecap="round" />
</g>
<g transform="matrix(0.13 0 0 -0.13 566.35 758.3)"  >
<path style="stroke: none; stroke-width: 1; stroke-dasharray: none; stroke-linecap: butt; stroke-dashoffset: 0; stroke-linejoin: miter; stroke-miterlimit: 4; fill: rgb(0,0,0); fill-rule: nonzero; opacity: 1;" vector-effect="non-scaling-stroke"  transform=" translate(-5270.03, -3491.03)" d="M 5303 3521 C 5253 3504 5165 3451 5174 3443 C 5179 3437 5271 3461 5300 3476 C 5328 3490 5379 3540 5364 3540 C 5359 3539 5332 3531 5303 3521 z" stroke-linecap="round" />
</g>
<g transform="matrix(0.13 0 0 -0.13 470.13 772.12)"  >
<path style="stroke: none; stroke-width: 1; stroke-dasharray: none; stroke-linecap: butt; stroke-dashoffset: 0; stroke-linejoin: miter; stroke-miterlimit: 4; fill: rgb(0,0,0); fill-rule: nonzero; opacity: 1;" vector-effect="non-scaling-stroke"  transform=" translate(-4548.91, -3386.04)" d="M 4435 3400 C 4420 3375 4451 3365 4543 3365 C 4594 3365 4644 3369 4655 3374 C 4673 3382 4671 3384 4640 3391 C 4569 3407 4443 3413 4435 3400 z" stroke-linecap="round" />
</g>
<g transform="matrix(0.13 0 0 -0.13 194.3 70.38)"  >
<path style="stroke: none; stroke-width: 1; stroke-dasharray: none; stroke-linecap: butt; stroke-dashoffset: 0; stroke-linejoin: miter; stroke-miterlimit: 4; fill: rgb(0,0,0); fill-rule: nonzero; opacity: 1;" vector-effect="non-scaling-stroke"  transform=" translate(-2480, -8730.42)" d="M 2433 8830 C 2405 8819 2370 8764 2370 8732 C 2370 8696 2397 8652 2430 8635 C 2508 8595 2589 8642 2590 8729 C 2590 8765 2584 8778 2556 8806 C 2520 8842 2481 8849 2433 8830 z M 2519 8736 C 2524 8709 2493 8688 2469 8701 C 2450 8711 2444 8740 2457 8754 C 2471 8768 2515 8755 2519 8736 z" stroke-linecap="round" />
</g>
<g transform="matrix(0.13 0 0 -0.13 234.92 899.08)"  >
<path style="stroke: rgb(0,0,0); stroke-width: 0; stroke-dasharray: none; stroke-linecap: butt; stroke-dashoffset: 0; stroke-linejoin: miter; stroke-miterlimit: 4; fill: rgb(255,120,0); fill-opacity: 0.99; fill-rule: nonzero; opacity: 1;" vector-effect="non-scaling-stroke"  transform=" translate(-2798.94, -2410.13)" d="M 2287 2922 C 2259 2891 2266 2847 2305 2800 L 2340 2758 L 2340 2420 L 2340 2082 L 2305 2040 C 2263 1989 2257 1933 2291 1899 C 2312 1878 2318 1878 2599 1883 C 2912 1888 2961 1895 3070 1950 C 3143 1987 3235 2076 3273 2147 C 3351 2292 3347 2525 3263 2695 C 3229 2766 3146 2844 3064 2882 C 2961 2930 2879 2940 2576 2940 C 2324 2940 2302 2939 2287 2922 z M 2470 2800 C 2470 2795 2466 2790 2460 2790 C 2455 2790 2450 2795 2450 2800 C 2450 2806 2455 2810 2460 2810 C 2466 2810 2470 2806 2470 2800 z M 2875 2720 C 2924 2699 2951 2670 2984 2603 C 3034 2504 3034 2314 2985 2214 C 2939 2120 2869 2080 2751 2080 C 2642 2080 2650 2055 2650 2408 C 2650 2577 2654 2720 2658 2726 C 2662 2733 2674 2740 2685 2743 C 2720 2753 2833 2739 2875 2720 z" stroke-linecap="round" />
</g>
<g transform="matrix(0.13 0 0 -0.13 381.62 899.16)"  >
<path style="stroke: rgb(0,0,0); stroke-width: 0; stroke-dasharray: none; stroke-linecap: butt; stroke-dashoffset: 0; stroke-linejoin: miter; stroke-miterlimit: 4; fill: rgb(255,120,0); fill-opacity: 0.99; fill-rule: nonzero; opacity: 1;" vector-effect="non-scaling-stroke"  transform=" translate(-3898.48, -2409.61)" d="M 3418 2929 C 3387 2911 3394 2847 3433 2804 L 3465 2767 L 3465 2414 L 3465 2061 L 3432 2027 C 3390 1984 3385 1927 3420 1898 C 3440 1882 3464 1880 3625 1880 C 3788 1880 3810 1882 3831 1898 C 3866 1927 3861 1971 3817 2019 L 3780 2060 L 3780 2170 L 3780 2280 L 3819 2280 C 3869 2280 3884 2262 3940 2133 C 4032 1919 4037 1910 4074 1895 C 4119 1876 4333 1874 4370 1893 C 4408 1912 4411 1973 4374 2003 C 4306 2057 4271 2103 4211 2213 C 4177 2277 4150 2336 4153 2344 C 4156 2351 4178 2368 4201 2381 C 4297 2434 4344 2545 4321 2667 C 4293 2819 4204 2903 4040 2929 C 3956 2943 3441 2943 3418 2929 z M 3964 2719 C 4050 2651 4033 2513 3935 2484 C 3891 2470 3821 2467 3796 2476 C 3783 2481 3780 2502 3780 2605 C 3780 2694 3783 2730 3793 2733 C 3799 2736 3835 2739 3871 2739 C 3924 2740 3943 2736 3964 2719 z" stroke-linecap="round" />
</g>
<g transform="matrix(0.13 0 0 -0.13 525.03 899.7)"  >
<path style="stroke: none; stroke-width: 0; stroke-dasharray: none; stroke-linecap: butt; stroke-dashoffset: 0; stroke-linejoin: miter; stroke-miterlimit: 4; fill: rgb(255,120,0); fill-opacity: 0.99; fill-rule: nonzero; opacity: 1;" vector-effect="non-scaling-stroke"  transform=" translate(-4975.12, -2405.35)" d="M 4450 2920 C 4420 2890 4425 2847 4463 2804 L 4495 2767 L 4500 2471 C 4505 2193 4507 2171 4528 2118 C 4604 1928 4851 1831 5117 1886 C 5246 1912 5335 1969 5387 2057 C 5442 2151 5444 2164 5450 2481 L 5455 2777 L 5488 2814 C 5523 2855 5530 2898 5504 2924 C 5491 2937 5459 2940 5315 2940 C 5120 2940 5110 2937 5110 2873 C 5110 2844 5118 2831 5153 2799 L 5195 2760 L 5198 2526 C 5201 2280 5193 2193 5162 2151 C 5125 2100 5095 2087 5013 2083 C 4946 2079 4929 2082 4890 2102 C 4807 2145 4805 2153 4802 2481 L 4799 2766 L 4834 2809 C 4875 2857 4879 2891 4850 2920 C 4831 2939 4817 2940 4650 2940 C 4483 2940 4469 2939 4450 2920 z" stroke-linecap="round" />
</g>
<g transform="matrix(0.13 0 0 -0.13 683.89 899.02)"  >
<path style="stroke: rgb(0,0,0); stroke-width: 0; stroke-dasharray: none; stroke-linecap: butt; stroke-dashoffset: 0; stroke-linejoin: miter; stroke-miterlimit: 4; fill: rgb(255,120,0); fill-opacity: 0.99; fill-rule: nonzero; opacity: 1;" vector-effect="non-scaling-stroke"  transform=" translate(-6136.89, -2410.63)" d="M 5620 2920 C 5591 2891 5595 2855 5634 2813 L 5668 2775 L 5671 2429 L 5675 2083 L 5628 2032 C 5601 2004 5580 1974 5580 1966 C 5580 1941 5602 1902 5619 1894 C 5645 1884 5929 1880 5955 1890 C 6004 1908 5997 1960 5939 2028 L 5910 2061 L 5910 2270 C 5910 2432 5913 2480 5923 2480 C 5935 2479 6095 2255 6252 2020 C 6298 1949 6339 1899 6355 1892 C 6369 1885 6421 1880 6471 1880 C 6553 1880 6563 1882 6585 1905 L 6610 1929 L 6610 2317 C 6610 2530 6615 2722 6619 2744 C 6624 2765 6643 2798 6661 2816 C 6696 2852 6704 2896 6680 2924 C 6661 2947 6365 2947 6332 2924 C 6303 2904 6302 2850 6331 2824 C 6376 2784 6380 2761 6380 2566 C 6380 2464 6376 2379 6371 2376 C 6366 2373 6329 2419 6288 2478 C 6054 2816 5979 2917 5955 2928 C 5939 2936 5874 2940 5785 2940 C 5653 2940 5638 2938 5620 2920 z" stroke-linecap="round" />
</g>
<g transform="matrix(0.13 0 0 -0.13 839.91 899.05)"  >
<path style="stroke: rgb(0,0,0); stroke-width: 0; stroke-dasharray: none; stroke-linecap: butt; stroke-dashoffset: 0; stroke-linejoin: miter; stroke-miterlimit: 4; fill: rgb(255,120,0); fill-opacity: 0.99; fill-rule: nonzero; opacity: 1;" vector-effect="non-scaling-stroke"  transform=" translate(-7336.64, -2410.36)" d="M 6817 2922 C 6789 2892 6796 2852 6835 2808 L 6871 2769 L 6868 2415 L 6865 2061 L 6834 2028 C 6797 1990 6787 1962 6795 1927 C 6806 1885 6841 1878 7033 1882 C 7188 1885 7210 1887 7229 1904 C 7264 1936 7257 1981 7210 2028 L 7170 2068 L 7170 2156 L 7170 2245 L 7211 2288 C 7234 2312 7260 2330 7269 2328 C 7278 2326 7306 2289 7332 2245 C 7358 2202 7393 2145 7410 2119 C 7445 2064 7448 2040 7420 2015 C 7392 1990 7393 1929 7421 1904 C 7440 1887 7462 1885 7640 1882 C 7830 1879 7840 1880 7859 1899 C 7899 1939 7883 1995 7820 2035 C 7777 2062 7760 2087 7618 2325 C 7495 2532 7497 2526 7509 2548 C 7525 2579 7726 2771 7776 2803 C 7818 2831 7825 2840 7828 2872 C 7833 2934 7815 2940 7608 2940 C 7443 2940 7428 2938 7410 2920 C 7386 2896 7384 2861 7405 2834 C 7413 2824 7420 2808 7420 2799 C 7420 2780 7204 2535 7187 2535 C 7179 2535 7174 2569 7172 2651 L 7169 2767 L 7205 2810 C 7244 2857 7250 2898 7222 2923 C 7206 2938 7177 2940 7018 2940 C 6852 2940 6831 2938 6817 2922 z" stroke-linecap="round" />
</g>
<g transform="matrix(0.13 0 0 -0.13 254.59 1052.72)"  >
<path style="stroke: none; stroke-width: 0; stroke-dasharray: none; stroke-linecap: butt; stroke-dashoffset: 0; stroke-linejoin: miter; stroke-miterlimit: 4; fill: rgb(255,120,0); fill-opacity: 0.99; fill-rule: nonzero; opacity: 1;" vector-effect="non-scaling-stroke"  transform=" translate(-2944.76, -1240)" d="M 2498 1739 C 2485 1732 2480 1717 2480 1689 C 2480 1657 2487 1642 2515 1613 L 2550 1577 L 2550 1244 L 2550 912 L 2515 870 C 2475 822 2468 774 2498 747 C 2514 732 2544 730 2712 730 C 2888 730 2908 732 2923 748 C 2950 777 2943 812 2901 863 C 2869 901 2860 922 2854 967 C 2849 1009 2851 1031 2861 1050 C 2875 1074 2881 1075 2995 1082 C 3233 1095 3365 1173 3400 1322 C 3436 1469 3373 1620 3246 1695 C 3163 1743 3109 1750 2800 1750 C 2625 1750 2508 1745 2498 1739 z M 3055 1536 C 3143 1478 3141 1342 3050 1291 C 2999 1263 2890 1251 2872 1272 C 2865 1281 2857 1334 2853 1398 C 2848 1494 2849 1513 2865 1536 C 2881 1562 2885 1562 2955 1558 C 3001 1555 3039 1547 3055 1536 z" stroke-linecap="round" />
</g>
<g transform="matrix(0.13 0 0 -0.13 377.22 1052.82)"  >
<path style="stroke: none; stroke-width: 0; stroke-dasharray: none; stroke-linecap: butt; stroke-dashoffset: 0; stroke-linejoin: miter; stroke-miterlimit: 4; fill: rgb(255,120,0); fill-opacity: 0.99; fill-rule: nonzero; opacity: 1;" vector-effect="non-scaling-stroke"  transform=" translate(-3866.62, -1239.23)" d="M 3600 1730 C 3572 1702 3575 1670 3610 1630 C 3626 1611 3639 1584 3640 1572 C 3640 1559 3613 1473 3581 1382 C 3404 885 3419 920 3368 869 C 3315 816 3306 776 3338 747 C 3354 733 3382 730 3516 730 C 3688 730 3704 734 3715 782 C 3720 803 3715 816 3685 849 C 3653 884 3648 895 3654 922 C 3667 986 3678 990 3831 990 C 3962 990 3970 989 3984 968 C 4010 931 4004 888 3970 858 C 3932 825 3928 770 3962 746 C 3993 724 4366 722 4395 744 C 4424 765 4419 815 4383 853 C 4366 871 4345 899 4337 915 C 4317 954 4080 1666 4080 1686 C 4080 1694 4068 1712 4054 1725 C 4027 1750 4026 1750 3824 1750 C 3633 1750 3619 1749 3600 1730 z M 3955 1560 C 3952 1555 3945 1550 3939 1550 C 3934 1550 3930 1555 3930 1560 C 3930 1566 3937 1570 3946 1570 C 3954 1570 3958 1566 3955 1560 z M 3878 1334 C 3896 1280 3913 1218 3916 1198 L 3923 1160 L 3826 1160 C 3768 1160 3730 1164 3730 1170 C 3730 1178 3785 1346 3815 1428 C 3826 1459 3847 1428 3878 1334 z" stroke-linecap="round" />
</g>
<g transform="matrix(0.13 0 0 -0.13 529.74 1052.7)"  >
<path style="stroke: none; stroke-width: 0; stroke-dasharray: none; stroke-linecap: butt; stroke-dashoffset: 0; stroke-linejoin: miter; stroke-miterlimit: 4; fill: rgb(255,120,0); fill-opacity: 0.99; fill-rule: nonzero; opacity: 1;" vector-effect="non-scaling-stroke"  transform=" translate(-5010.41, -1240.2)" d="M 4486 1734 C 4456 1704 4462 1666 4504 1619 L 4537 1584 L 4543 1415 C 4552 1193 4551 985 4541 933 C 4536 909 4519 876 4501 855 C 4467 815 4460 771 4486 746 C 4499 733 4530 730 4664 730 C 4809 730 4829 732 4843 748 C 4871 778 4864 816 4823 861 L 4785 903 L 4782 1106 C 4780 1220 4783 1310 4788 1310 C 4799 1310 4899 1171 5064 929 C 5133 826 5197 739 5206 736 C 5214 733 5266 730 5320 730 C 5401 730 5422 733 5441 749 L 5465 768 L 5470 1178 L 5475 1588 L 5500 1609 C 5514 1620 5528 1629 5533 1630 C 5537 1630 5545 1641 5550 1655 C 5560 1682 5548 1729 5527 1742 C 5506 1756 5206 1751 5187 1738 C 5154 1712 5157 1678 5197 1626 L 5235 1577 L 5238 1389 C 5241 1237 5239 1200 5228 1200 C 5216 1201 5173 1261 4957 1580 C 4914 1643 4866 1707 4849 1723 L 4820 1750 L 4661 1750 C 4529 1750 4499 1747 4486 1734 z" stroke-linecap="round" />
</g>
<g transform="matrix(0.13 0 0 -0.13 680.51 1052.69)"  >
<path style="stroke: none; stroke-width: 0; stroke-dasharray: none; stroke-linecap: butt; stroke-dashoffset: 0; stroke-linejoin: miter; stroke-miterlimit: 4; fill: rgb(255,120,0); fill-opacity: 0.99; fill-rule: nonzero; opacity: 1;" vector-effect="non-scaling-stroke"  transform=" translate(-6140.35, -1240.26)" d="M 5652 1738 C 5645 1731 5640 1708 5640 1686 C 5640 1654 5647 1639 5673 1612 L 5705 1579 L 5705 1240 L 5705 901 L 5668 863 C 5627 821 5620 788 5646 752 C 5661 730 5664 730 5911 730 C 6196 730 6271 740 6387 796 C 6559 878 6650 1032 6650 1240 C 6649 1517 6495 1703 6237 1739 C 6126 1755 5668 1754 5652 1738 z M 6196 1546 C 6252 1520 6287 1480 6322 1404 C 6341 1363 6345 1338 6345 1245 C 6345 1107 6325 1045 6260 980 C 6210 930 6160 910 6084 910 C 6001 910 6005 891 6002 1234 C 5999 1585 5995 1570 6088 1570 C 6127 1570 6161 1562 6196 1546 z" stroke-linecap="round" />
</g>
<g transform="matrix(0.13 0 0 -0.13 818.91 1052.72)"  >
<path style="stroke: none; stroke-width: 0; stroke-dasharray: none; stroke-linecap: butt; stroke-dashoffset: 0; stroke-linejoin: miter; stroke-miterlimit: 4; fill: rgb(255,120,0); fill-opacity: 0.99; fill-rule: nonzero; opacity: 1;" vector-effect="non-scaling-stroke"  transform=" translate(-7179.3, -1240)" d="M 6920 1730 C 6893 1703 6895 1677 6925 1632 C 6956 1586 6956 1576 6924 1493 C 6910 1455 6865 1333 6825 1220 C 6716 914 6714 908 6670 865 C 6637 833 6630 819 6630 788 C 6630 761 6635 748 6649 740 C 6660 735 6734 730 6818 730 C 6960 730 6967 731 6988 753 C 7017 784 7016 825 6985 852 C 6955 878 6951 933 6976 968 C 6992 991 6996 991 7136 988 C 7265 985 7281 983 7294 965 C 7318 934 7313 904 7278 865 C 7241 822 7237 774 7271 748 C 7290 732 7316 730 7491 730 C 7677 730 7691 731 7710 750 C 7740 780 7734 808 7690 852 C 7640 903 7632 923 7410 1583 C 7379 1675 7360 1717 7342 1731 C 7320 1748 7300 1750 7129 1750 C 6953 1750 6939 1749 6920 1730 z M 7200 1302 C 7229 1213 7237 1173 7230 1166 C 7216 1152 7054 1152 7040 1166 C 7030 1176 7046 1225 7122 1429 C 7137 1469 7157 1436 7200 1302 z" stroke-linecap="round" />
</g>
<g transform="matrix(0 0 0 0 0 0)"  >
<g style=""   >
</g>
</g>
<g transform="matrix(0 0 0 0 0 0)"  >
<g style=""   >
</g>
</g>
<g transform="matrix(0 0 0 0 0 0)"  >
<g style=""   >
</g>
</g>
<g transform="matrix(0 0 0 0 0 0)"  >
<g style=""   >
</g>
</g>
<g transform="matrix(0 0 0 0 0 0)"  >
<g style=""   >
</g>
</g>
<g transform="matrix(0 0 0 0 0 0)"  >
<g style=""   >
</g>
</g>
<g transform="matrix(0 0 0 0 0 0)"  >
<g style=""   >
</g>
</g>
<g transform="matrix(0 0 0 0 0 0)"  >
<g style=""   >
</g>
</g>
<g transform="matrix(0 0 0 0 0 0)"  >
<g style=""   >
</g>
</g>
<g transform="matrix(0 0 0 0 0 0)"  >
<g style=""   >
</g>
</g>
<g transform="matrix(0 0 0 0 0 0)"  >
<g style=""   >
</g>
</g>
<g transform="matrix(NaN NaN NaN NaN 0 0)"  >
<g style=""   >
</g>
</g>
<g transform="matrix(NaN NaN NaN NaN 0 0)"  >
<g style=""   >
</g>
</g>
<g transform="matrix(NaN NaN NaN NaN 0 0)"  >
<g style=""   >
</g>
</g>
<g transform="matrix(NaN NaN NaN NaN 0 0)"  >
<g style=""   >
</g>
</g>
<g transform="matrix(NaN NaN NaN NaN 0 0)"  >
<g style=""   >
</g>
</g>
</svg>